<?xml version="1.0" encoding="UTF-8" standalone="no"?>
<svg
   xmlns:dc="http://purl.org/dc/elements/1.1/"
   xmlns:cc="http://creativecommons.org/ns#"
   xmlns:rdf="http://www.w3.org/1999/02/22-rdf-syntax-ns#"
   xmlns:svg="http://www.w3.org/2000/svg"
   xmlns="http://www.w3.org/2000/svg"
   viewBox="0 0 1020.48 340.16"
   height="340.16"
   width="1020.48"
   xml:space="preserve"
   id="svg2"
   version="1.1"><metadata
     id="metadata8"><rdf:RDF><cc:Work
         rdf:about=""><dc:format>image/svg+xml</dc:format><dc:type
           rdf:resource="http://purl.org/dc/dcmitype/StillImage" /></cc:Work></rdf:RDF></metadata><defs
     id="defs6"><clipPath
       id="clipPath18"
       clipPathUnits="userSpaceOnUse"><path
         style="clip-rule:evenodd"
         id="path16"
         d="M 0,6.1035e-5 H 765.36 V 255.12006 H 0 Z" /></clipPath><clipPath
       id="clipPath36"
       clipPathUnits="userSpaceOnUse"><path
         style="clip-rule:evenodd"
         id="path34"
         d="M 1.1405e-5,0 H 765.36001 V 255.12 H 1.1405e-5 Z" /></clipPath><clipPath
       id="clipPath48"
       clipPathUnits="userSpaceOnUse"><path
         style="clip-rule:evenodd"
         id="path46"
         d="M 1.1405e-5,0 H 765.36001 V 255.12 H 1.1405e-5 Z" /></clipPath><clipPath
       id="clipPath60"
       clipPathUnits="userSpaceOnUse"><path
         style="clip-rule:evenodd"
         id="path58"
         d="M 1.1405e-5,0 H 765.36001 V 255.12 H 1.1405e-5 Z" /></clipPath><clipPath
       id="clipPath78"
       clipPathUnits="userSpaceOnUse"><path
         style="clip-rule:evenodd"
         id="path76"
         d="M 1.1405e-5,0 H 765.36001 V 255.12 H 1.1405e-5 Z" /></clipPath><clipPath
       id="clipPath90"
       clipPathUnits="userSpaceOnUse"><path
         style="clip-rule:evenodd"
         id="path88"
         d="M 1.1405e-5,0 H 765.36001 V 255.12 H 1.1405e-5 Z" /></clipPath><clipPath
       id="clipPath110"
       clipPathUnits="userSpaceOnUse"><path
         style="clip-rule:evenodd"
         id="path108"
         d="M 1.1405e-5,0 H 765.36001 V 255.12 H 1.1405e-5 Z" /></clipPath><clipPath
       id="clipPath122"
       clipPathUnits="userSpaceOnUse"><path
         style="clip-rule:evenodd"
         id="path120"
         d="M 1.1405e-5,0 H 765.36001 V 255.12 H 1.1405e-5 Z" /></clipPath><clipPath
       id="clipPath138"
       clipPathUnits="userSpaceOnUse"><path
         style="clip-rule:evenodd"
         id="path136"
         d="M 1.1405e-5,0 H 765.36001 V 255.12 H 1.1405e-5 Z" /></clipPath><clipPath
       id="clipPath152"
       clipPathUnits="userSpaceOnUse"><path
         style="clip-rule:evenodd"
         id="path150"
         d="M 1.1405e-5,0 H 765.36001 V 255.12 H 1.1405e-5 Z" /></clipPath><clipPath
       id="clipPath168"
       clipPathUnits="userSpaceOnUse"><path
         style="clip-rule:evenodd"
         id="path166"
         d="M 1.1405e-5,0 H 765.36001 V 255.12 H 1.1405e-5 Z" /></clipPath><clipPath
       id="clipPath184"
       clipPathUnits="userSpaceOnUse"><path
         style="clip-rule:evenodd"
         id="path182"
         d="M 1.1405e-5,0 H 765.36001 V 255.12 H 1.1405e-5 Z" /></clipPath><clipPath
       id="clipPath202"
       clipPathUnits="userSpaceOnUse"><path
         style="clip-rule:evenodd"
         id="path200"
         d="M 1.1405e-5,0 H 765.36001 V 255.12 H 1.1405e-5 Z" /></clipPath><clipPath
       id="clipPath214"
       clipPathUnits="userSpaceOnUse"><path
         style="clip-rule:evenodd"
         id="path212"
         d="M 1.1405e-5,0 H 765.36001 V 255.12 H 1.1405e-5 Z" /></clipPath><clipPath
       id="clipPath230"
       clipPathUnits="userSpaceOnUse"><path
         style="clip-rule:evenodd"
         id="path228"
         d="M 1.1405e-5,0 H 765.36001 V 255.12 H 1.1405e-5 Z" /></clipPath><clipPath
       id="clipPath242"
       clipPathUnits="userSpaceOnUse"><path
         style="clip-rule:evenodd"
         id="path240"
         d="M 1.1405e-5,0 H 765.36001 V 255.12 H 1.1405e-5 Z" /></clipPath><clipPath
       id="clipPath260"
       clipPathUnits="userSpaceOnUse"><path
         style="clip-rule:evenodd"
         id="path258"
         d="M 1.1405e-5,0 H 765.36001 V 255.12 H 1.1405e-5 Z" /></clipPath><clipPath
       id="clipPath272"
       clipPathUnits="userSpaceOnUse"><path
         style="clip-rule:evenodd"
         id="path270"
         d="M 1.1405e-5,0 H 765.36001 V 255.12 H 1.1405e-5 Z" /></clipPath><clipPath
       id="clipPath290"
       clipPathUnits="userSpaceOnUse"><path
         style="clip-rule:evenodd"
         id="path288"
         d="M 1.1405e-5,0 H 765.36001 V 255.12 H 1.1405e-5 Z" /></clipPath><clipPath
       id="clipPath318"
       clipPathUnits="userSpaceOnUse"><path
         style="clip-rule:evenodd"
         id="path316"
         d="M 1.1405e-5,0 H 765.36001 V 255.12 H 1.1405e-5 Z" /></clipPath><clipPath
       id="clipPath330"
       clipPathUnits="userSpaceOnUse"><path
         style="clip-rule:evenodd"
         id="path328"
         d="M 1.1405e-5,0 H 765.36001 V 255.12 H 1.1405e-5 Z" /></clipPath><clipPath
       id="clipPath346"
       clipPathUnits="userSpaceOnUse"><path
         style="clip-rule:evenodd"
         id="path344"
         d="M 1.1405e-5,0 H 765.36001 V 255.12 H 1.1405e-5 Z" /></clipPath><clipPath
       id="clipPath362"
       clipPathUnits="userSpaceOnUse"><path
         style="clip-rule:evenodd"
         id="path360"
         d="M 1.1405e-5,0 H 765.36001 V 255.12 H 1.1405e-5 Z" /></clipPath><clipPath
       id="clipPath378"
       clipPathUnits="userSpaceOnUse"><path
         style="clip-rule:evenodd"
         id="path376"
         d="M 1.1405e-5,0 H 765.36001 V 255.12 H 1.1405e-5 Z" /></clipPath><clipPath
       id="clipPath394"
       clipPathUnits="userSpaceOnUse"><path
         style="clip-rule:evenodd"
         id="path392"
         d="M 1.1405e-5,0 H 765.36001 V 255.12 H 1.1405e-5 Z" /></clipPath><clipPath
       id="clipPath410"
       clipPathUnits="userSpaceOnUse"><path
         style="clip-rule:evenodd"
         id="path408"
         d="M 1.1405e-5,0 H 765.36001 V 255.12 H 1.1405e-5 Z" /></clipPath></defs><g
     transform="matrix(1.3333333,0,0,-1.3333333,0,340.16)"
     id="g10"><g
       id="g12"><g
         clip-path="url(#clipPath18)"
         id="g14"><path
           id="path20"
           style="fill:#ffffff;fill-opacity:1;fill-rule:evenodd;stroke:none"
           d="M 0,1.5259e-5 H 765.36 V 255.12002 H 0 Z" /></g></g><path
       id="path22"
       style="fill:#ffc000;fill-opacity:1;fill-rule:nonzero;stroke:none"
       d="M 363.84,210.96 V 102.35 h -2.52 v 108.61 z m -5.04,-1.26 3.78,7.56 3.78,-7.56 z" /><path
       id="path24"
       style="fill:#ffc000;fill-opacity:1;fill-rule:nonzero;stroke:none"
       d="M 249.96,210.96 V 101.54 h -2.52 v 109.42 z m -5.04,-1.26 3.78,7.56 3.78,-7.56 z" /><path
       id="path26"
       style="fill:#f6ecf7;fill-opacity:1;fill-rule:evenodd;stroke:none"
       d="m 15.06,75.78 12.75,51 h 100.65 l -12.75,-51 z" /><path
       id="path28"
       style="fill:none;stroke:#f391b7;stroke-width:2.51999998;stroke-linecap:butt;stroke-linejoin:miter;stroke-miterlimit:10;stroke-dasharray:none;stroke-opacity:1"
       d="m 15.06,75.78 12.75,51 h 100.65 l -12.75,-51 z" /><g
       id="g30"><g
         clip-path="url(#clipPath36)"
         id="g32"><text
           id="text40"
           style="font-variant:normal;font-weight:normal;font-size:14.03999996px;font-family:Calibri;-inkscape-font-specification:Calibri;writing-mode:lr-tb;fill:#000000;fill-opacity:1;fill-rule:nonzero;stroke:none"
           transform="matrix(1,0,0,-1,52.368,104.95)"><tspan
             id="tspan38"
             y="0"
             x="0 8.7469196 15.10704 22.478041 29.399759">Hyper</tspan></text>
</g></g><g
       id="g42"><g
         clip-path="url(#clipPath48)"
         id="g44"><text
           id="text52"
           style="font-variant:normal;font-weight:normal;font-size:14.03999996px;font-family:Calibri;-inkscape-font-specification:Calibri;writing-mode:lr-tb;fill:#000000;fill-opacity:1;fill-rule:nonzero;stroke:none"
           transform="matrix(1,0,0,-1,86.688,104.95)"><tspan
             id="tspan50"
             y="0"
             x="0">-</tspan></text>
</g></g><g
       id="g54"><g
         clip-path="url(#clipPath60)"
         id="g56"><text
           id="text64"
           style="font-variant:normal;font-weight:normal;font-size:14.06400013px;font-family:Calibri;-inkscape-font-specification:Calibri;writing-mode:lr-tb;fill:#000000;fill-opacity:1;fill-rule:nonzero;stroke:none"
           transform="matrix(1,0,0,-1,39.288,88.152)"><tspan
             id="tspan62"
             y="0"
             x="0 6.9616799 13.698336 18.367584 25.10424 36.242928 43.078033 47.634769 54.596447 59.279758">Parameters</tspan></text>
</g></g><path
       id="path66"
       style="fill:#5b9bd5;fill-opacity:1;fill-rule:nonzero;stroke:none"
       d="m 123.06,101.76 h 22.05 v -2.52 h -22.05 z m 20.79,2.52 7.56,-3.78 -7.56,-3.78 z" /><path
       id="path68"
       style="fill:#deebf7;fill-opacity:1;fill-rule:evenodd;stroke:none"
       d="m 151.74,118.28 c 0,4.69 3.81,8.5 8.5,8.5 h 67.96 c 4.69,0 8.5,-3.81 8.5,-8.5 v -34 c 0,-4.694 -3.81,-8.5 -8.5,-8.5 h -67.96 c -4.69,0 -8.5,3.806 -8.5,8.5 z" /><path
       id="path70"
       style="fill:none;stroke:#5b9bd5;stroke-width:2.51999998;stroke-linecap:butt;stroke-linejoin:miter;stroke-miterlimit:10;stroke-dasharray:none;stroke-opacity:1"
       d="m 151.74,118.28 c 0,4.69 3.81,8.5 8.5,8.5 h 67.96 c 4.69,0 8.5,-3.81 8.5,-8.5 v -34 c 0,-4.694 -3.81,-8.5 -8.5,-8.5 h -67.96 c -4.69,0 -8.5,3.806 -8.5,8.5 z" /><g
       id="g72"><g
         clip-path="url(#clipPath78)"
         id="g74"><text
           id="text82"
           style="font-variant:normal;font-weight:normal;font-size:14.03999996px;font-family:Calibri;-inkscape-font-specification:Calibri;writing-mode:lr-tb;fill:#000000;fill-opacity:1;fill-rule:nonzero;stroke:none"
           transform="matrix(1,0,0,-1,174.1,104.95)"><tspan
             id="tspan80"
             y="0"
             x="0 3.48192 10.79676 14.02596 18.729361 21.958561 28.55736 33.120361">Initiate</tspan></text>
</g></g><g
       id="g84"><g
         clip-path="url(#clipPath90)"
         id="g86"><text
           id="text94"
           style="font-variant:normal;font-weight:normal;font-size:14.06400013px;font-family:Calibri;-inkscape-font-specification:Calibri;writing-mode:lr-tb;fill:#000000;fill-opacity:1;fill-rule:nonzero;stroke:none"
           transform="matrix(1,0,0,-1,172.42,88.152)"><tspan
             id="tspan92"
             y="0"
             x="0 8.6493597 15.245376 19.802113 26.538769 32.037792 38.886959">Dataset</tspan></text>
</g></g><path
       id="path96"
       style="fill:#deebf7;fill-opacity:1;fill-rule:evenodd;stroke:none"
       d="m 379.98,100.62 56.7,35.4 56.7,-35.4 -56.7,-35.4 z" /><path
       id="path98"
       style="fill:none;stroke:#5b9bd5;stroke-width:2.51999998;stroke-linecap:butt;stroke-linejoin:miter;stroke-miterlimit:10;stroke-dasharray:none;stroke-opacity:1"
       d="m 379.98,100.62 56.7,35.4 56.7,-35.4 -56.7,-35.4 z" /><path
       id="path100"
       style="fill:#deebf7;fill-opacity:1;fill-rule:evenodd;stroke:none"
       d="m 265.26,118.28 c 0,4.69 3.81,8.5 8.5,8.5 h 67.96 c 4.69,0 8.5,-3.81 8.5,-8.5 v -34 c 0,-4.694 -3.81,-8.5 -8.5,-8.5 h -67.96 c -4.69,0 -8.5,3.806 -8.5,8.5 z" /><path
       id="path102"
       style="fill:none;stroke:#5b9bd5;stroke-width:2.51999998;stroke-linecap:butt;stroke-linejoin:miter;stroke-miterlimit:10;stroke-dasharray:none;stroke-opacity:1"
       d="m 265.26,118.28 c 0,4.69 3.81,8.5 8.5,8.5 h 67.96 c 4.69,0 8.5,-3.81 8.5,-8.5 v -34 c 0,-4.694 -3.81,-8.5 -8.5,-8.5 h -67.96 c -4.69,0 -8.5,3.806 -8.5,8.5 z" /><g
       id="g104"><g
         clip-path="url(#clipPath110)"
         id="g106"><text
           id="text114"
           style="font-variant:normal;font-weight:normal;font-size:14.03999996px;font-family:Calibri;-inkscape-font-specification:Calibri;writing-mode:lr-tb;fill:#000000;fill-opacity:1;fill-rule:nonzero;stroke:none"
           transform="matrix(1,0,0,-1,287.64,104.95)"><tspan
             id="tspan112"
             y="0"
             x="0 3.48192 10.85292 14.08212 18.785521 22.014721 28.62756 33.204601">Initiate</tspan></text>
</g></g><g
       id="g116"><g
         clip-path="url(#clipPath122)"
         id="g118"><text
           id="text126"
           style="font-variant:normal;font-weight:normal;font-size:14.06400013px;font-family:Calibri;-inkscape-font-specification:Calibri;writing-mode:lr-tb;fill:#000000;fill-opacity:1;fill-rule:nonzero;stroke:none"
           transform="matrix(1,0,0,-1,289.22,88.152)"><tspan
             id="tspan124"
             y="0"
             x="0 12.02472 19.436447 26.763792 33.725471">Model</tspan></text>
</g></g><path
       id="path128"
       style="fill:#5b9bd5;fill-opacity:1;fill-rule:nonzero;stroke:none"
       d="m 236.7,102 h 22.05 V 99.48 H 236.7 Z m 20.79,2.52 7.56,-3.78 -7.56,-3.78 z" /><path
       id="path130"
       style="fill:#5b9bd5;fill-opacity:1;fill-rule:nonzero;stroke:none"
       d="m 351.18,102.36 h 22.05 v -2.52 h -22.05 z m 20.79,2.52 7.56,-3.78 -7.56,-3.78 z" /><g
       id="g132"><g
         clip-path="url(#clipPath138)"
         id="g134"><text
           id="text142"
           style="font-variant:normal;font-weight:normal;font-size:14.06400013px;font-family:Calibri;-inkscape-font-specification:Calibri;writing-mode:lr-tb;fill:#000000;fill-opacity:1;fill-rule:nonzero;stroke:none"
           transform="matrix(1,0,0,-1,408.36,96.672)"><tspan
             id="tspan140"
             y="0"
             x="0 7.4398561 14.851584 21.953903 28.19832 35.16 39.843311 46.326817">Converge</tspan></text>
</g></g><path
       id="path144"
       style="fill:#5b9bd5;fill-opacity:1;fill-rule:nonzero;stroke:none"
       d="m 491.94,101.88 h 24.88 v -2.52 h -24.88 z m 23.62,2.52 7.56,-3.78 -7.56,-3.78 z" /><g
       id="g146"><g
         clip-path="url(#clipPath152)"
         id="g148"><text
           id="text156"
           style="font-variant:normal;font-weight:normal;font-size:14.03999996px;font-family:Calibri;-inkscape-font-specification:Calibri;writing-mode:lr-tb;fill:#000000;fill-opacity:1;fill-rule:nonzero;stroke:none"
           transform="matrix(1,0,0,-1,493.92,83.16)"><tspan
             id="tspan154"
             y="0"
             x="0 9.1200399">No</tspan></text>
</g></g><path
       id="path158"
       style="fill:none;stroke:#5b9bd5;stroke-width:2.51999998;stroke-linecap:butt;stroke-linejoin:miter;stroke-miterlimit:10;stroke-dasharray:none;stroke-opacity:1"
       d="M 436.62,65.22 V 34.926" /><path
       id="path160"
       style="fill:#5b9bd5;fill-opacity:1;fill-rule:nonzero;stroke:none"
       d="m 435.42,36.12 h 78.92 V 33.6 h -78.92 z m 77.66,2.52 7.56,-3.78 -7.56,-3.78 z" /><g
       id="g162"><g
         clip-path="url(#clipPath168)"
         id="g164"><text
           id="text172"
           style="font-variant:normal;font-weight:normal;font-size:14.03999996px;font-family:Calibri;-inkscape-font-specification:Calibri;writing-mode:lr-tb;fill:#000000;fill-opacity:1;fill-rule:nonzero;stroke:none"
           transform="matrix(1,0,0,-1,493.58,43.776)"><tspan
             id="tspan170"
             y="0"
             x="0 5.88276 12.87468">Yes</tspan></text>
</g></g><path
       id="path174"
       style="fill:#deebf7;fill-opacity:1;fill-rule:evenodd;stroke:none"
       d="m 522.3,50 c 0,4.694 3.81,8.5 8.5,8.5 h 68.08 c 4.69,0 8.5,-3.806 8.5,-8.5 V 16 c 0,-4.694 -3.81,-8.5 -8.5,-8.5 H 530.8 c -4.69,0 -8.5,3.806 -8.5,8.5 z" /><path
       id="path176"
       style="fill:none;stroke:#5b9bd5;stroke-width:2.51999998;stroke-linecap:butt;stroke-linejoin:miter;stroke-miterlimit:10;stroke-dasharray:none;stroke-opacity:1"
       d="m 522.3,50 c 0,4.694 3.81,8.5 8.5,8.5 h 68.08 c 4.69,0 8.5,-3.806 8.5,-8.5 V 16 c 0,-4.694 -3.81,-8.5 -8.5,-8.5 H 530.8 c -4.69,0 -8.5,3.806 -8.5,8.5 z" /><g
       id="g178"><g
         clip-path="url(#clipPath184)"
         id="g180"><text
           id="text188"
           style="font-variant:normal;font-weight:normal;font-size:14.03999996px;font-family:Calibri;-inkscape-font-specification:Calibri;writing-mode:lr-tb;fill:#000000;fill-opacity:1;fill-rule:nonzero;stroke:none"
           transform="matrix(1,0,0,-1,535.32,28.272)"><tspan
             id="tspan186"
             y="0"
             x="0 6.4864802 12.60792 19.33308 22.562281 29.891159 36.48996 41.193359 44.422562 51.82164">Evaluation</tspan></text>
</g></g><path
       id="path190"
       style="fill:#5b9bd5;fill-opacity:1;fill-rule:nonzero;stroke:none"
       d="m 608.58,34.2 h 47.56 v -2.52 h -47.56 z m 46.3,2.52 7.56,-3.78 -7.56,-3.78 z" /><path
       id="path192"
       style="fill:#fbe5d6;fill-opacity:1;fill-rule:evenodd;stroke:none"
       d="m 656.34,6.54 12.78,51.12 h 82.14 L 738.48,6.54 Z" /><path
       id="path194"
       style="fill:none;stroke:#ff9276;stroke-width:2.51999998;stroke-linecap:butt;stroke-linejoin:miter;stroke-miterlimit:10;stroke-dasharray:none;stroke-opacity:1"
       d="m 656.34,6.54 12.78,51.12 h 82.14 L 738.48,6.54 Z" /><g
       id="g196"><g
         clip-path="url(#clipPath202)"
         id="g198"><text
           id="text206"
           style="font-variant:normal;font-weight:normal;font-size:14.06400013px;font-family:Calibri;-inkscape-font-specification:Calibri;writing-mode:lr-tb;fill:#000000;fill-opacity:1;fill-rule:nonzero;stroke:none"
           transform="matrix(1,0,0,-1,692.52,35.784)"><tspan
             id="tspan204"
             y="0"
             x="0 5.6396642 12.601344 18.001921">Test</tspan></text>
</g></g><g
       id="g208"><g
         clip-path="url(#clipPath214)"
         id="g210"><text
           id="text218"
           style="font-variant:normal;font-weight:normal;font-size:14.03999996px;font-family:Calibri;-inkscape-font-specification:Calibri;writing-mode:lr-tb;fill:#000000;fill-opacity:1;fill-rule:nonzero;stroke:none"
           transform="matrix(1,0,0,-1,683.52,18.96)"><tspan
             id="tspan216"
             y="0"
             x="0 7.4411998 14.43312 19.92276 27.2376 30.466801 35.1702">Results</tspan></text>
</g></g><path
       id="path220"
       style="fill:#deebf7;fill-opacity:1;fill-rule:evenodd;stroke:none"
       d="m 523.02,121.4 c 0,4.69 3.81,8.5 8.5,8.5 h 67.96 c 4.69,0 8.5,-3.81 8.5,-8.5 v -34 c 0,-4.694 -3.81,-8.5 -8.5,-8.5 h -67.96 c -4.69,0 -8.5,3.806 -8.5,8.5 z" /><path
       id="path222"
       style="fill:none;stroke:#5b9bd5;stroke-width:2.51999998;stroke-linecap:butt;stroke-linejoin:miter;stroke-miterlimit:10;stroke-dasharray:none;stroke-opacity:1"
       d="m 523.02,121.4 c 0,4.69 3.81,8.5 8.5,8.5 h 67.96 c 4.69,0 8.5,-3.81 8.5,-8.5 v -34 c 0,-4.694 -3.81,-8.5 -8.5,-8.5 h -67.96 c -4.69,0 -8.5,3.806 -8.5,8.5 z" /><g
       id="g224"><g
         clip-path="url(#clipPath230)"
         id="g226"><text
           id="text234"
           style="font-variant:normal;font-weight:normal;font-size:14.06400013px;font-family:Calibri;-inkscape-font-specification:Calibri;writing-mode:lr-tb;fill:#000000;fill-opacity:1;fill-rule:nonzero;stroke:none"
           transform="matrix(1,0,0,-1,547.03,108.07)"><tspan
             id="tspan232"
             y="0"
             x="0 12.02472 19.436447 26.763792 33.725471">Model</tspan></text>
</g></g><g
       id="g236"><g
         clip-path="url(#clipPath242)"
         id="g238"><text
           id="text246"
           style="font-variant:normal;font-weight:normal;font-size:14.03999996px;font-family:Calibri;-inkscape-font-specification:Calibri;writing-mode:lr-tb;fill:#000000;fill-opacity:1;fill-rule:nonzero;stroke:none"
           transform="matrix(1,0,0,-1,542.95,91.248)"><tspan
             id="tspan244"
             y="0"
             x="0 5.99508 10.6704 17.395559 20.62476 27.95364 31.18284 38.553841">Training</tspan></text>
</g></g><path
       id="path248"
       style="fill:#5b9bd5;fill-opacity:1;fill-rule:nonzero;stroke:none"
       d="m 608.46,102.72 h 50.39 v -2.52 h -50.39 z m 49.13,2.52 7.56,-3.78 -7.56,-3.78 z" /><path
       id="path250"
       style="fill:#deebf7;fill-opacity:1;fill-rule:evenodd;stroke:none"
       d="m 665.46,121.4 c 0,4.69 3.81,8.5 8.5,8.5 h 67.96 c 4.69,0 8.5,-3.81 8.5,-8.5 v -34 c 0,-4.694 -3.81,-8.5 -8.5,-8.5 h -67.96 c -4.69,0 -8.5,3.806 -8.5,8.5 z" /><path
       id="path252"
       style="fill:none;stroke:#5b9bd5;stroke-width:2.51999998;stroke-linecap:butt;stroke-linejoin:miter;stroke-miterlimit:10;stroke-dasharray:none;stroke-opacity:1"
       d="m 665.46,121.4 c 0,4.69 3.81,8.5 8.5,8.5 h 67.96 c 4.69,0 8.5,-3.81 8.5,-8.5 v -34 c 0,-4.694 -3.81,-8.5 -8.5,-8.5 h -67.96 c -4.69,0 -8.5,3.806 -8.5,8.5 z" /><g
       id="g254"><g
         clip-path="url(#clipPath260)"
         id="g256"><text
           id="text264"
           style="font-variant:normal;font-weight:normal;font-size:14.03999996px;font-family:Calibri;-inkscape-font-specification:Calibri;writing-mode:lr-tb;fill:#000000;fill-opacity:1;fill-rule:nonzero;stroke:none"
           transform="matrix(1,0,0,-1,695.81,99.648)"><tspan
             id="tspan262"
             y="0"
             x="0 5.8968 13.29588 18.827641">Loss</tspan></text>
</g></g><g
       id="g266"><g
         clip-path="url(#clipPath272)"
         id="g268"><text
           id="text276"
           style="font-variant:normal;font-weight:normal;font-size:14.03999996px;font-family:Calibri;-inkscape-font-specification:Calibri;writing-mode:lr-tb;fill:#000000;fill-opacity:1;fill-rule:nonzero;stroke:none"
           transform="matrix(1,0,0,-1,613.01,84.312)"><tspan
             id="tspan274"
             y="0"
             x="0 6.2337599 13.63284 18.701281 28.65564 35.380798 40.056122">Forward</tspan></text>
</g></g><path
       id="path278"
       style="fill:none;stroke:#5b9bd5;stroke-width:2.51999998;stroke-linecap:butt;stroke-linejoin:miter;stroke-miterlimit:10;stroke-dasharray:none;stroke-opacity:1"
       d="m 705.9,150.66 v -19.9" /><path
       id="path280"
       style="fill:#5b9bd5;fill-opacity:1;fill-rule:nonzero;stroke:none"
       d="m 583.2,150.66 v -14.52 h -2.52 v 14.52 z m 2.52,-13.26 -3.78,-7.56 -3.78,7.56 z" /><path
       id="path282"
       style="fill:none;stroke:#5b9bd5;stroke-width:2.51999998;stroke-linecap:butt;stroke-linejoin:miter;stroke-miterlimit:10;stroke-dasharray:none;stroke-opacity:1"
       d="M 706.37,149.82 581.22,149.73" /><g
       id="g284"><g
         clip-path="url(#clipPath290)"
         id="g286"><text
           id="text294"
           style="font-variant:normal;font-weight:normal;font-size:14.03999996px;font-family:Calibri;-inkscape-font-specification:Calibri;writing-mode:lr-tb;fill:#000000;fill-opacity:1;fill-rule:nonzero;stroke:none"
           transform="matrix(1,0,0,-1,607.94,131.98)"><tspan
             id="tspan292"
             y="0"
             x="0 7.6658401 14.391 20.25972 26.647921 36.5742 43.299358 47.974682">Backward</tspan></text>
</g></g><path
       id="path296"
       style="fill:none;stroke:#5b9bd5;stroke-width:2.51999998;stroke-linecap:butt;stroke-linejoin:miter;stroke-miterlimit:10;stroke-dasharray:none;stroke-opacity:1"
       d="M 559.86,150.66 V 129.69" /><path
       id="path298"
       style="fill:#5b9bd5;fill-opacity:1;fill-rule:nonzero;stroke:none"
       d="m 438.6,149.94 v -7.87 h -2.52 v 7.87 z m 2.52,-6.61 -3.78,-7.56 -3.78,7.56 z" /><path
       id="path300"
       style="fill:none;stroke:#5b9bd5;stroke-width:2.51999998;stroke-linecap:butt;stroke-linejoin:miter;stroke-miterlimit:10;stroke-dasharray:none;stroke-opacity:1"
       d="M 561.05,150.66 435.9,150.57" /><path
       id="path302"
       style="fill:#ffc000;fill-opacity:1;fill-rule:nonzero;stroke:none"
       d="M 499.32,217.26 V 107.84 h -2.52 v 109.42 z m 2.52,-108.16 -3.78,-7.56 -3.78,7.56 z" /><path
       id="path304"
       style="fill:#ffc000;fill-opacity:1;fill-rule:nonzero;stroke:none"
       d="M 513.6,217.26 V 107.84 h -2.52 v 109.42 z m 2.52,-108.16 -3.78,-7.56 -3.78,7.56 z" /><path
       id="path306"
       style="fill:#ffc000;fill-opacity:1;fill-rule:nonzero;stroke:none"
       d="m 638.76,217.26 v -60.23 h -2.52 v 60.23 z m 2.52,-58.97 -3.78,-7.56 -3.78,7.56 z" /><path
       id="path308"
       style="fill:#e2f0d9;fill-opacity:1;fill-rule:evenodd;stroke:none"
       d="m 15.06,242.46 c 0,2.78 2.256,5.04 5.04,5.04 h 725.28 c 2.78,0 5.04,-2.26 5.04,-5.04 V 222.3 c 0,-2.78 -2.26,-5.04 -5.04,-5.04 H 20.1 c -2.784,0 -5.04,2.26 -5.04,5.04 z" /><path
       id="path310"
       style="fill:none;stroke:#70ad47;stroke-width:2.03999996;stroke-linecap:butt;stroke-linejoin:miter;stroke-miterlimit:10;stroke-dasharray:none;stroke-opacity:1"
       d="m 15.06,242.46 c 0,2.78 2.256,5.04 5.04,5.04 h 725.28 c 2.78,0 5.04,-2.26 5.04,-5.04 V 222.3 c 0,-2.78 -2.26,-5.04 -5.04,-5.04 H 20.1 c -2.784,0 -5.04,2.26 -5.04,5.04 z" /><g
       id="g312"><g
         clip-path="url(#clipPath318)"
         id="g314"><text
           id="text322"
           style="font-variant:normal;font-weight:normal;font-size:14.03999996px;font-family:Calibri;-inkscape-font-specification:Calibri;writing-mode:lr-tb;fill:#000000;fill-opacity:1;fill-rule:nonzero;stroke:none"
           transform="matrix(1,0,0,-1,346.2,227.74)"><tspan
             id="tspan320"
             y="0"
             x="0 7.4400201">CL</tspan></text>
</g></g><g
       id="g324"><g
         clip-path="url(#clipPath330)"
         id="g326"><text
           id="text334"
           style="font-variant:normal;font-weight:normal;font-size:14.03999996px;font-family:Calibri;-inkscape-font-specification:Calibri;writing-mode:lr-tb;fill:#000000;fill-opacity:1;fill-rule:nonzero;stroke:none"
           transform="matrix(1,0,0,-1,362.64,227.74)"><tspan
             id="tspan332"
             y="0"
             x="0 8.1291599 11.35836 17.886959 25.286039 30.228121 33.457321 38.160721 45.461521">Algorithm</tspan></text>
</g></g><path
       id="path336"
       style="fill:#fff2cc;fill-opacity:1;fill-rule:evenodd;stroke:none"
       d="m 434.58,206.4 c 0,2.09 1.69,3.78 3.78,3.78 H 555.6 c 2.09,0 3.78,-1.69 3.78,-3.78 v -15.12 c 0,-2.09 -1.69,-3.78 -3.78,-3.78 H 438.36 c -2.09,0 -3.78,1.69 -3.78,3.78 z" /><path
       id="path338"
       style="fill:none;stroke:#ffc000;stroke-width:2.51999998;stroke-linecap:butt;stroke-linejoin:miter;stroke-miterlimit:10;stroke-dasharray:none;stroke-opacity:1"
       d="m 434.58,206.4 c 0,2.09 1.69,3.78 3.78,3.78 H 555.6 c 2.09,0 3.78,-1.69 3.78,-3.78 v -15.12 c 0,-2.09 -1.69,-3.78 -3.78,-3.78 H 438.36 c -2.09,0 -3.78,1.69 -3.78,3.78 z" /><g
       id="g340"><g
         clip-path="url(#clipPath346)"
         id="g342"><text
           id="text350"
           style="font-variant:normal;font-weight:normal;font-size:14.03999996px;font-family:Calibri;-inkscape-font-specification:Calibri;writing-mode:lr-tb;fill:#000000;fill-opacity:1;fill-rule:nonzero;stroke:none"
           transform="matrix(1,0,0,-1,449.18,194.14)"><tspan
             id="tspan348"
             y="0"
             x="0 7.3148398 13.91364 18.476641 25.201799 32.193722 38.034359 45.349201 50.249161 55.14912 58.420441 64.3032 71.618042 74.847237 82.218239">data_curriculum</tspan></text>
</g></g><path
       id="path352"
       style="fill:#fff2cc;fill-opacity:1;fill-rule:evenodd;stroke:none"
       d="m 450.06,176.52 c 0,2.09 1.69,3.78 3.78,3.78 h 117.12 c 2.09,0 3.78,-1.69 3.78,-3.78 V 161.4 c 0,-2.09 -1.69,-3.78 -3.78,-3.78 H 453.84 c -2.09,0 -3.78,1.69 -3.78,3.78 z" /><path
       id="path354"
       style="fill:none;stroke:#ffc000;stroke-width:2.51999998;stroke-linecap:butt;stroke-linejoin:miter;stroke-miterlimit:10;stroke-dasharray:none;stroke-opacity:1"
       d="m 450.06,176.52 c 0,2.09 1.69,3.78 3.78,3.78 h 117.12 c 2.09,0 3.78,-1.69 3.78,-3.78 V 161.4 c 0,-2.09 -1.69,-3.78 -3.78,-3.78 H 453.84 c -2.09,0 -3.78,1.69 -3.78,3.78 z" /><g
       id="g356"><g
         clip-path="url(#clipPath362)"
         id="g358"><text
           id="text366"
           style="font-variant:normal;font-weight:normal;font-size:14.03999996px;font-family:Calibri;-inkscape-font-specification:Calibri;writing-mode:lr-tb;fill:#000000;fill-opacity:1;fill-rule:nonzero;stroke:none"
           transform="matrix(1,0,0,-1,458.35,164.33)"><tspan
             id="tspan364"
             y="0"
             x="0 11.1618 18.560881 25.931881 32.923801 36.153 43.08876 48.971519 56.286362 61.186321 66.086281 69.357597 75.240356 82.555199 85.784401 93.155403">model_curriculum</tspan></text>
</g></g><path
       id="path368"
       style="fill:#fff2cc;fill-opacity:1;fill-rule:evenodd;stroke:none"
       d="m 584.22,191.88 c 0,2.09 1.69,3.78 3.78,3.78 h 103.68 c 2.09,0 3.78,-1.69 3.78,-3.78 v -15.12 c 0,-2.09 -1.69,-3.78 -3.78,-3.78 H 588 c -2.09,0 -3.78,1.69 -3.78,3.78 z" /><path
       id="path370"
       style="fill:none;stroke:#ffc000;stroke-width:2.51999998;stroke-linecap:butt;stroke-linejoin:miter;stroke-miterlimit:10;stroke-dasharray:none;stroke-opacity:1"
       d="m 584.22,191.88 c 0,2.09 1.69,3.78 3.78,3.78 h 103.68 c 2.09,0 3.78,-1.69 3.78,-3.78 v -15.12 c 0,-2.09 -1.69,-3.78 -3.78,-3.78 H 588 c -2.09,0 -3.78,1.69 -3.78,3.78 z" /><g
       id="g372"><g
         clip-path="url(#clipPath378)"
         id="g374"><text
           id="text382"
           style="font-variant:normal;font-weight:normal;font-size:14.03999996px;font-family:Calibri;-inkscape-font-specification:Calibri;writing-mode:lr-tb;fill:#000000;fill-opacity:1;fill-rule:nonzero;stroke:none"
           transform="matrix(1,0,0,-1,592.54,179.69)"><tspan
             id="tspan380"
             y="0"
             x="0 3.2291999 10.6704 16.16004 21.691799 28.68372 34.538399 41.853241 46.753201 51.65316 54.92448 60.80724 68.122078 71.35128 78.722282">loss_curriculum</tspan></text>
</g></g><path
       id="path384"
       style="fill:#fff2cc;fill-opacity:1;fill-rule:evenodd;stroke:none"
       d="m 198.66,192.12 c 0,2.09 1.69,3.78 3.78,3.78 h 93.84 c 2.09,0 3.78,-1.69 3.78,-3.78 V 177 c 0,-2.09 -1.69,-3.78 -3.78,-3.78 h -93.84 c -2.09,0 -3.78,1.69 -3.78,3.78 z" /><path
       id="path386"
       style="fill:none;stroke:#ffc000;stroke-width:2.51999998;stroke-linecap:butt;stroke-linejoin:miter;stroke-miterlimit:10;stroke-dasharray:none;stroke-opacity:1"
       d="m 198.66,192.12 c 0,2.09 1.69,3.78 3.78,3.78 h 93.84 c 2.09,0 3.78,-1.69 3.78,-3.78 V 177 c 0,-2.09 -1.69,-3.78 -3.78,-3.78 h -93.84 c -2.09,0 -3.78,1.69 -3.78,3.78 z" /><g
       id="g388"><g
         clip-path="url(#clipPath394)"
         id="g390"><text
           id="text398"
           style="font-variant:normal;font-weight:normal;font-size:14.03999996px;font-family:Calibri;-inkscape-font-specification:Calibri;writing-mode:lr-tb;fill:#000000;fill-opacity:1;fill-rule:nonzero;stroke:none"
           transform="matrix(1,0,0,-1,210,179.86)"><tspan
             id="tspan396"
             y="0"
             x="0 7.3709998 13.9698 18.546841 25.271999 32.26392 39.634918 44.32428 51.3162 58.687199 65.412361 70.101723">data_prepare</tspan></text>
</g></g><path
       id="path400"
       style="fill:#fff2cc;fill-opacity:1;fill-rule:evenodd;stroke:none"
       d="m 306.18,191.88 c 0,2.09 1.69,3.78 3.78,3.78 h 100.08 c 2.09,0 3.78,-1.69 3.78,-3.78 v -15.12 c 0,-2.09 -1.69,-3.78 -3.78,-3.78 H 309.96 c -2.09,0 -3.78,1.69 -3.78,3.78 z" /><path
       id="path402"
       style="fill:none;stroke:#ffc000;stroke-width:2.51999998;stroke-linecap:butt;stroke-linejoin:miter;stroke-miterlimit:10;stroke-dasharray:none;stroke-opacity:1"
       d="m 306.18,191.88 c 0,2.09 1.69,3.78 3.78,3.78 h 100.08 c 2.09,0 3.78,-1.69 3.78,-3.78 v -15.12 c 0,-2.09 -1.69,-3.78 -3.78,-3.78 H 309.96 c -2.09,0 -3.78,1.69 -3.78,3.78 z" /><g
       id="g404"><g
         clip-path="url(#clipPath410)"
         id="g406"><text
           id="text414"
           style="font-variant:normal;font-weight:normal;font-size:14.03999996px;font-family:Calibri;-inkscape-font-specification:Calibri;writing-mode:lr-tb;fill:#000000;fill-opacity:1;fill-rule:nonzero;stroke:none"
           transform="matrix(1,0,0,-1,314.47,179.69)"><tspan
             id="tspan412"
             y="0"
             x="0 11.1618 18.560881 25.931881 32.923801 36.153 43.08876 50.403599 55.078918 62.070839 69.357597 76.082764 80.75808">model_prepare</tspan></text>
</g></g></g></svg>