<?xml version="1.0" encoding="UTF-8" standalone="no"?>
<svg
   xmlns:dc="http://purl.org/dc/elements/1.1/"
   xmlns:cc="http://creativecommons.org/ns#"
   xmlns:rdf="http://www.w3.org/1999/02/22-rdf-syntax-ns#"
   xmlns:svg="http://www.w3.org/2000/svg"
   xmlns="http://www.w3.org/2000/svg"
   viewBox="0 0 1020.48 340.16"
   height="340.16"
   width="1020.48"
   xml:space="preserve"
   id="svg2"
   version="1.1"><metadata
     id="metadata8"><rdf:RDF><cc:Work
         rdf:about=""><dc:format>image/svg+xml</dc:format><dc:type
           rdf:resource="http://purl.org/dc/dcmitype/StillImage" /></cc:Work></rdf:RDF></metadata><defs
     id="defs6"><clipPath
       id="clipPath18"
       clipPathUnits="userSpaceOnUse"><path
         style="clip-rule:evenodd"
         id="path16"
         d="M 0,6.1035e-5 H 765.36 V 255.12006 H 0 Z" /></clipPath><clipPath
       id="clipPath36"
       clipPathUnits="userSpaceOnUse"><path
         style="clip-rule:evenodd"
         id="path34"
         d="M 1.1405e-5,0 H 765.36001 V 255.12 H 1.1405e-5 Z" /></clipPath><clipPath
       id="clipPath48"
       clipPathUnits="userSpaceOnUse"><path
         style="clip-rule:evenodd"
         id="path46"
         d="M 1.1405e-5,0 H 765.36001 V 255.12 H 1.1405e-5 Z" /></clipPath><clipPath
       id="clipPath60"
       clipPathUnits="userSpaceOnUse"><path
         style="clip-rule:evenodd"
         id="path58"
         d="M 1.1405e-5,0 H 765.36001 V 255.12 H 1.1405e-5 Z" /></clipPath><clipPath
       id="clipPath78"
       clipPathUnits="userSpaceOnUse"><path
         style="clip-rule:evenodd"
         id="path76"
         d="M 1.1405e-5,0 H 765.36001 V 255.12 H 1.1405e-5 Z" /></clipPath><clipPath
       id="clipPath90"
       clipPathUnits="userSpaceOnUse"><path
         style="clip-rule:evenodd"
         id="path88"
         d="M 1.1405e-5,0 H 765.36001 V 255.12 H 1.1405e-5 Z" /></clipPath><clipPath
       id="clipPath110"
       clipPathUnits="userSpaceOnUse"><path
         style="clip-rule:evenodd"
         id="path108"
         d="M 1.1405e-5,0 H 765.36001 V 255.12 H 1.1405e-5 Z" /></clipPath><clipPath
       id="clipPath122"
       clipPathUnits="userSpaceOnUse"><path
         style="clip-rule:evenodd"
         id="path120"
         d="M 1.1405e-5,0 H 765.36001 V 255.12 H 1.1405e-5 Z" /></clipPath><clipPath
       id="clipPath138"
       clipPathUnits="userSpaceOnUse"><path
         style="clip-rule:evenodd"
         id="path136"
         d="M 1.1405e-5,0 H 765.36001 V 255.12 H 1.1405e-5 Z" /></clipPath><clipPath
       id="clipPath152"
       clipPathUnits="userSpaceOnUse"><path
         style="clip-rule:evenodd"
         id="path150"
         d="M 1.1405e-5,0 H 765.36001 V 255.12 H 1.1405e-5 Z" /></clipPath><clipPath
       id="clipPath168"
       clipPathUnits="userSpaceOnUse"><path
         style="clip-rule:evenodd"
         id="path166"
         d="M 1.1405e-5,0 H 765.36001 V 255.12 H 1.1405e-5 Z" /></clipPath><clipPath
       id="clipPath184"
       clipPathUnits="userSpaceOnUse"><path
         style="clip-rule:evenodd"
         id="path182"
         d="M 1.1405e-5,0 H 765.36001 V 255.12 H 1.1405e-5 Z" /></clipPath><clipPath
       id="clipPath202"
       clipPathUnits="userSpaceOnUse"><path
         style="clip-rule:evenodd"
         id="path200"
         d="M 1.1405e-5,0 H 765.36001 V 255.12 H 1.1405e-5 Z" /></clipPath><clipPath
       id="clipPath214"
       clipPathUnits="userSpaceOnUse"><path
         style="clip-rule:evenodd"
         id="path212"
         d="M 1.1405e-5,0 H 765.36001 V 255.12 H 1.1405e-5 Z" /></clipPath><clipPath
       id="clipPath230"
       clipPathUnits="userSpaceOnUse"><path
         style="clip-rule:evenodd"
         id="path228"
         d="M 1.1405e-5,0 H 765.36001 V 255.12 H 1.1405e-5 Z" /></clipPath><clipPath
       id="clipPath242"
       clipPathUnits="userSpaceOnUse"><path
         style="clip-rule:evenodd"
         id="path240"
         d="M 1.1405e-5,0 H 765.36001 V 255.12 H 1.1405e-5 Z" /></clipPath><clipPath
       id="clipPath260"
       clipPathUnits="userSpaceOnUse"><path
         style="clip-rule:evenodd"
         id="path258"
         d="M 1.1405e-5,0 H 765.36001 V 255.12 H 1.1405e-5 Z" /></clipPath><clipPath
       id="clipPath272"
       clipPathUnits="userSpaceOnUse"><path
         style="clip-rule:evenodd"
         id="path270"
         d="M 1.1405e-5,0 H 765.36001 V 255.12 H 1.1405e-5 Z" /></clipPath><clipPath
       id="clipPath290"
       clipPathUnits="userSpaceOnUse"><path
         style="clip-rule:evenodd"
         id="path288"
         d="M 1.1405e-5,0 H 765.36001 V 255.12 H 1.1405e-5 Z" /></clipPath><clipPath
       id="clipPath318"
       clipPathUnits="userSpaceOnUse"><path
         style="clip-rule:evenodd"
         id="path316"
         d="M 1.1405e-5,0 H 765.36001 V 255.12 H 1.1405e-5 Z" /></clipPath><clipPath
       id="clipPath330"
       clipPathUnits="userSpaceOnUse"><path
         style="clip-rule:evenodd"
         id="path328"
         d="M 1.1405e-5,0 H 765.36001 V 255.12 H 1.1405e-5 Z" /></clipPath><clipPath
       id="clipPath346"
       clipPathUnits="userSpaceOnUse"><path
         style="clip-rule:evenodd"
         id="path344"
         d="M 1.1405e-5,0 H 765.36001 V 255.12 H 1.1405e-5 Z" /></clipPath><clipPath
       id="clipPath362"
       clipPathUnits="userSpaceOnUse"><path
         style="clip-rule:evenodd"
         id="path360"
         d="M 1.1405e-5,0 H 765.36001 V 255.12 H 1.1405e-5 Z" /></clipPath><clipPath
       id="clipPath378"
       clipPathUnits="userSpaceOnUse"><path
         style="clip-rule:evenodd"
         id="path376"
         d="M 1.1405e-5,0 H 765.36001 V 255.12 H 1.1405e-5 Z" /></clipPath><clipPath
       id="clipPath394"
       clipPathUnits="userSpaceOnUse"><path
         style="clip-rule:evenodd"
         id="path392"
         d="M 1.1405e-5,0 H 765.36001 V 255.12 H 1.1405e-5 Z" /></clipPath><clipPath
       id="clipPath410"
       clipPathUnits="userSpaceOnUse"><path
         style="clip-rule:evenodd"
         id="path408"
         d="M 1.1405e-5,0 H 765.36001 V 255.12 H 1.1405e-5 Z" /></clipPath></defs><g
     transform="matrix(1.3333333,0,0,-1.3333333,0,340.16)"
     id="g10"><g
       id="g12"><g
         clip-path="url(#clipPath18)"
         id="g14"><path
           id="path20"
           style="fill:#ffffff;fill-opacity:1;fill-rule:evenodd;stroke:none"
           d="M 0,1.5259e-5 H 765.36 V 255.12002 H 0 Z" /></g></g><path
       id="path22"
       style="fill:#ffc000;fill-opacity:1;fill-rule:nonzero;stroke:none"
       d="M 364.44,210.96 V 102.35 h -2.52 v 108.61 z m -5.04,-1.26 3.78,7.56 3.78,-7.56 z" /><path
       id="path24"
       style="fill:#ffc000;fill-opacity:1;fill-rule:nonzero;stroke:none"
       d="M 249.96,210.96 V 101.54 h -2.52 v 109.42 z m -5.04,-1.26 3.78,7.56 3.78,-7.56 z" /><path
       id="path26"
       style="fill:#f6ecf7;fill-opacity:1;fill-rule:evenodd;stroke:none"
       d="m 9.18,75.78 12.75,51 h 106.29 l -12.75,-51 z" /><path
       id="path28"
       style="fill:none;stroke:#f391b7;stroke-width:2.51999998;stroke-linecap:butt;stroke-linejoin:miter;stroke-miterlimit:10;stroke-dasharray:none;stroke-opacity:1"
       d="m 9.18,75.78 12.75,51 h 106.29 l -12.75,-51 z" /><g
       id="g30"><g
         clip-path="url(#clipPath36)"
         id="g32"><text
           id="text40"
           style="font-variant:normal;font-weight:normal;font-size:14.03999996px;font-family:ArialMT;-inkscape-font-specification:ArialMT;writing-mode:lr-tb;fill:#000000;fill-opacity:1;fill-rule:nonzero;stroke:none"
           transform="matrix(1,0,0,-1,47.664,104.47)"><tspan
             id="tspan38"
             y="0"
             x="0 10.08072 16.9182 24.72444 32.530682">Hyper</tspan></text>
</g></g><g
       id="g42"><g
         clip-path="url(#clipPath48)"
         id="g44"><text
           id="text52"
           style="font-variant:normal;font-weight:normal;font-size:14.03999996px;font-family:ArialMT;-inkscape-font-specification:ArialMT;writing-mode:lr-tb;fill:#000000;fill-opacity:1;fill-rule:nonzero;stroke:none"
           transform="matrix(1,0,0,-1,84.864,104.47)"><tspan
             id="tspan50"
             y="0"
             x="0">-</tspan></text>
</g></g><g
       id="g54"><g
         clip-path="url(#clipPath60)"
         id="g56"><text
           id="text64"
           style="font-variant:normal;font-weight:normal;font-size:14.06400013px;font-family:ArialMT;-inkscape-font-specification:ArialMT;writing-mode:lr-tb;fill:#000000;fill-opacity:1;fill-rule:nonzero;stroke:none"
           transform="matrix(1,0,0,-1,32.424,87.672)"><tspan
             id="tspan62"
             y="0"
             x="0 9.3806877 17.200272 21.841393 29.660976 41.27784 49.097424 53.007217 60.826801 65.510109">Parameters</tspan></text>
</g></g><path
       id="path66"
       style="fill:#5b9bd5;fill-opacity:1;fill-rule:nonzero;stroke:none"
       d="m 123.06,101.76 h 22.05 v -2.52 h -22.05 z m 20.79,2.52 7.56,-3.78 -7.56,-3.78 z" /><path
       id="path68"
       style="fill:#deebf7;fill-opacity:1;fill-rule:evenodd;stroke:none"
       d="m 151.74,118.28 c 0,4.69 3.81,8.5 8.5,8.5 h 67.96 c 4.69,0 8.5,-3.81 8.5,-8.5 v -34 c 0,-4.694 -3.81,-8.5 -8.5,-8.5 h -67.96 c -4.69,0 -8.5,3.806 -8.5,8.5 z" /><path
       id="path70"
       style="fill:none;stroke:#5b9bd5;stroke-width:2.51999998;stroke-linecap:butt;stroke-linejoin:miter;stroke-miterlimit:10;stroke-dasharray:none;stroke-opacity:1"
       d="m 151.74,118.28 c 0,4.69 3.81,8.5 8.5,8.5 h 67.96 c 4.69,0 8.5,-3.81 8.5,-8.5 v -34 c 0,-4.694 -3.81,-8.5 -8.5,-8.5 h -67.96 c -4.69,0 -8.5,3.806 -8.5,8.5 z" /><g
       id="g72"><g
         clip-path="url(#clipPath78)"
         id="g74"><text
           id="text82"
           style="font-variant:normal;font-weight:normal;font-size:14.03999996px;font-family:ArialMT;-inkscape-font-specification:ArialMT;writing-mode:lr-tb;fill:#000000;fill-opacity:1;fill-rule:nonzero;stroke:none"
           transform="matrix(1,0,0,-1,173.38,104.47)"><tspan
             id="tspan80"
             y="0"
             x="0 3.94524 11.75148 14.86836 18.813601 21.930479 29.736719 33.681961">Initiate</tspan></text>
</g></g><g
       id="g84"><g
         clip-path="url(#clipPath90)"
         id="g86"><text
           id="text94"
           style="font-variant:normal;font-weight:normal;font-size:14.06400013px;font-family:ArialMT;-inkscape-font-specification:ArialMT;writing-mode:lr-tb;fill:#000000;fill-opacity:1;fill-rule:nonzero;stroke:none"
           transform="matrix(1,0,0,-1,169.9,87.672)"><tspan
             id="tspan92"
             y="0"
             x="0 10.083888 17.903473 21.813265 29.632849 36.707039 44.526623">Dataset</tspan></text>
</g></g><path
       id="path96"
       style="fill:#deebf7;fill-opacity:1;fill-rule:evenodd;stroke:none"
       d="m 379.98,100.62 56.7,35.4 56.7,-35.4 -56.7,-35.4 z" /><path
       id="path98"
       style="fill:none;stroke:#5b9bd5;stroke-width:2.51999998;stroke-linecap:butt;stroke-linejoin:miter;stroke-miterlimit:10;stroke-dasharray:none;stroke-opacity:1"
       d="m 379.98,100.62 56.7,35.4 56.7,-35.4 -56.7,-35.4 z" /><path
       id="path100"
       style="fill:#deebf7;fill-opacity:1;fill-rule:evenodd;stroke:none"
       d="m 265.26,118.28 c 0,4.69 3.81,8.5 8.5,8.5 h 67.96 c 4.69,0 8.5,-3.81 8.5,-8.5 v -34 c 0,-4.694 -3.81,-8.5 -8.5,-8.5 h -67.96 c -4.69,0 -8.5,3.806 -8.5,8.5 z" /><path
       id="path102"
       style="fill:none;stroke:#5b9bd5;stroke-width:2.51999998;stroke-linecap:butt;stroke-linejoin:miter;stroke-miterlimit:10;stroke-dasharray:none;stroke-opacity:1"
       d="m 265.26,118.28 c 0,4.69 3.81,8.5 8.5,8.5 h 67.96 c 4.69,0 8.5,-3.81 8.5,-8.5 v -34 c 0,-4.694 -3.81,-8.5 -8.5,-8.5 h -67.96 c -4.69,0 -8.5,3.806 -8.5,8.5 z" /><g
       id="g104"><g
         clip-path="url(#clipPath110)"
         id="g106"><text
           id="text114"
           style="font-variant:normal;font-weight:normal;font-size:14.03999996px;font-family:ArialMT;-inkscape-font-specification:ArialMT;writing-mode:lr-tb;fill:#000000;fill-opacity:1;fill-rule:nonzero;stroke:none"
           transform="matrix(1,0,0,-1,286.92,104.47)"><tspan
             id="tspan112"
             y="0"
             x="0 3.94524 11.75148 14.86836 18.841681 21.958561 29.764799 33.738121">Initiate</tspan></text>
</g></g><g
       id="g116"><g
         clip-path="url(#clipPath122)"
         id="g118"><text
           id="text126"
           style="font-variant:normal;font-weight:normal;font-size:14.06400013px;font-family:ArialMT;-inkscape-font-specification:ArialMT;writing-mode:lr-tb;fill:#000000;fill-opacity:1;fill-rule:nonzero;stroke:none"
           transform="matrix(1,0,0,-1,288.6,87.672)"><tspan
             id="tspan124"
             y="0"
             x="0 11.659056 19.47864 27.298223 35.117809">Model</tspan></text>
</g></g><path
       id="path128"
       style="fill:#5b9bd5;fill-opacity:1;fill-rule:nonzero;stroke:none"
       d="m 236.7,102 h 22.05 V 99.48 H 236.7 Z m 20.79,2.52 7.56,-3.78 -7.56,-3.78 z" /><path
       id="path130"
       style="fill:#5b9bd5;fill-opacity:1;fill-rule:nonzero;stroke:none"
       d="m 351.18,102.36 h 22.05 v -2.52 h -22.05 z m 20.79,2.52 7.56,-3.78 -7.56,-3.78 z" /><g
       id="g132"><g
         clip-path="url(#clipPath138)"
         id="g134"><text
           id="text142"
           style="font-variant:normal;font-weight:normal;font-size:14.06400013px;font-family:ArialMT;-inkscape-font-specification:ArialMT;writing-mode:lr-tb;fill:#000000;fill-opacity:1;fill-rule:nonzero;stroke:none"
           transform="matrix(1,0,0,-1,408.36,96.192)"><tspan
             id="tspan140"
             y="0"
             x="0 10.083888 17.903473 25.723057 32.530033 40.349617 45.032928 52.810322">Converge</tspan></text>
</g></g><path
       id="path144"
       style="fill:#5b9bd5;fill-opacity:1;fill-rule:nonzero;stroke:none"
       d="m 491.94,101.88 h 24.88 v -2.52 h -24.88 z m 23.62,2.52 7.56,-3.78 -7.56,-3.78 z" /><g
       id="g146"><g
         clip-path="url(#clipPath152)"
         id="g148"><text
           id="text156"
           style="font-variant:normal;font-weight:normal;font-size:14.03999996px;font-family:ArialMT;-inkscape-font-specification:ArialMT;writing-mode:lr-tb;fill:#000000;fill-opacity:1;fill-rule:nonzero;stroke:none"
           transform="matrix(1,0,0,-1,493.92,82.68)"><tspan
             id="tspan154"
             y="0"
             x="0 10.07998">No</tspan></text>
</g></g><path
       id="path158"
       style="fill:none;stroke:#5b9bd5;stroke-width:2.51999998;stroke-linecap:butt;stroke-linejoin:miter;stroke-miterlimit:10;stroke-dasharray:none;stroke-opacity:1"
       d="M 436.62,65.22 V 34.926" /><path
       id="path160"
       style="fill:#5b9bd5;fill-opacity:1;fill-rule:nonzero;stroke:none"
       d="m 435.42,36.12 h 78.92 V 33.6 h -78.92 z m 77.66,2.52 7.56,-3.78 -7.56,-3.78 z" /><g
       id="g162"><g
         clip-path="url(#clipPath168)"
         id="g164"><text
           id="text172"
           style="font-variant:normal;font-weight:normal;font-size:14.03999996px;font-family:ArialMT;-inkscape-font-specification:ArialMT;writing-mode:lr-tb;fill:#000000;fill-opacity:1;fill-rule:nonzero;stroke:none"
           transform="matrix(1,0,0,-1,493.58,43.296)"><tspan
             id="tspan170"
             y="0"
             x="0 7.91856 15.7248">Yes</tspan></text>
</g></g><path
       id="path174"
       style="fill:#deebf7;fill-opacity:1;fill-rule:evenodd;stroke:none"
       d="m 522.3,50 c 0,4.694 3.81,8.5 8.5,8.5 h 68.08 c 4.69,0 8.5,-3.806 8.5,-8.5 V 16 c 0,-4.694 -3.81,-8.5 -8.5,-8.5 H 530.8 c -4.69,0 -8.5,3.806 -8.5,8.5 z" /><path
       id="path176"
       style="fill:none;stroke:#5b9bd5;stroke-width:2.51999998;stroke-linecap:butt;stroke-linejoin:miter;stroke-miterlimit:10;stroke-dasharray:none;stroke-opacity:1"
       d="m 522.3,50 c 0,4.694 3.81,8.5 8.5,8.5 h 68.08 c 4.69,0 8.5,-3.806 8.5,-8.5 V 16 c 0,-4.694 -3.81,-8.5 -8.5,-8.5 H 530.8 c -4.69,0 -8.5,3.806 -8.5,8.5 z" /><g
       id="g178"><g
         clip-path="url(#clipPath184)"
         id="g180"><text
           id="text188"
           style="font-variant:normal;font-weight:normal;font-size:14.03999996px;font-family:ArialMT;-inkscape-font-specification:ArialMT;writing-mode:lr-tb;fill:#000000;fill-opacity:1;fill-rule:nonzero;stroke:none"
           transform="matrix(1,0,0,-1,532.2,27.792)"><tspan
             id="tspan186"
             y="0"
             x="0 9.3646803 16.20216 24.0084 27.12528 34.931519 42.737759 46.640881 49.785839 57.592079">Evaluation</tspan></text>
</g></g><path
       id="path190"
       style="fill:#5b9bd5;fill-opacity:1;fill-rule:nonzero;stroke:none"
       d="m 608.58,34.2 h 47.56 v -2.52 h -47.56 z m 46.3,2.52 7.56,-3.78 -7.56,-3.78 z" /><path
       id="path192"
       style="fill:#fbe5d6;fill-opacity:1;fill-rule:evenodd;stroke:none"
       d="m 656.34,6.54 12.78,51.12 h 82.14 L 738.48,6.54 Z" /><path
       id="path194"
       style="fill:none;stroke:#ff9276;stroke-width:2.51999998;stroke-linecap:butt;stroke-linejoin:miter;stroke-miterlimit:10;stroke-dasharray:none;stroke-opacity:1"
       d="m 656.34,6.54 12.78,51.12 h 82.14 L 738.48,6.54 Z" /><g
       id="g196"><g
         clip-path="url(#clipPath202)"
         id="g198"><text
           id="text206"
           style="font-variant:normal;font-weight:normal;font-size:14.06400013px;font-family:ArialMT;-inkscape-font-specification:ArialMT;writing-mode:lr-tb;fill:#000000;fill-opacity:1;fill-rule:nonzero;stroke:none"
           transform="matrix(1,0,0,-1,690.96,35.304)"><tspan
             id="tspan204"
             y="0"
             x="0 6.9616799 14.781264 21.813265">Test</tspan></text>
</g></g><g
       id="g208"><g
         clip-path="url(#clipPath214)"
         id="g210"><text
           id="text218"
           style="font-variant:normal;font-weight:normal;font-size:14.03999996px;font-family:ArialMT;-inkscape-font-specification:ArialMT;writing-mode:lr-tb;fill:#000000;fill-opacity:1;fill-rule:nonzero;stroke:none"
           transform="matrix(1,0,0,-1,680.4,18.48)"><tspan
             id="tspan216"
             y="0"
             x="0 10.08072 17.886959 24.94908 32.755322 35.8722 39.81744">Results</tspan></text>
</g></g><path
       id="path220"
       style="fill:#deebf7;fill-opacity:1;fill-rule:evenodd;stroke:none"
       d="m 523.02,121.4 c 0,4.69 3.81,8.5 8.5,8.5 h 67.96 c 4.69,0 8.5,-3.81 8.5,-8.5 v -34 c 0,-4.694 -3.81,-8.5 -8.5,-8.5 h -67.96 c -4.69,0 -8.5,3.806 -8.5,8.5 z" /><path
       id="path222"
       style="fill:none;stroke:#5b9bd5;stroke-width:2.51999998;stroke-linecap:butt;stroke-linejoin:miter;stroke-miterlimit:10;stroke-dasharray:none;stroke-opacity:1"
       d="m 523.02,121.4 c 0,4.69 3.81,8.5 8.5,8.5 h 67.96 c 4.69,0 8.5,-3.81 8.5,-8.5 v -34 c 0,-4.694 -3.81,-8.5 -8.5,-8.5 h -67.96 c -4.69,0 -8.5,3.806 -8.5,8.5 z" /><g
       id="g224"><g
         clip-path="url(#clipPath230)"
         id="g226"><text
           id="text234"
           style="font-variant:normal;font-weight:normal;font-size:14.06400013px;font-family:ArialMT;-inkscape-font-specification:ArialMT;writing-mode:lr-tb;fill:#000000;fill-opacity:1;fill-rule:nonzero;stroke:none"
           transform="matrix(1,0,0,-1,546.41,107.59)"><tspan
             id="tspan232"
             y="0"
             x="0 11.644992 19.464577 27.284161 35.047489">Model</tspan></text>
</g></g><g
       id="g236"><g
         clip-path="url(#clipPath242)"
         id="g238"><text
           id="text246"
           style="font-variant:normal;font-weight:normal;font-size:14.03999996px;font-family:ArialMT;-inkscape-font-specification:ArialMT;writing-mode:lr-tb;fill:#000000;fill-opacity:1;fill-rule:nonzero;stroke:none"
           transform="matrix(1,0,0,-1,540.41,90.768)"><tspan
             id="tspan244"
             y="0"
             x="0 8.04492 12.72024 20.52648 23.64336 31.4496 34.566479 42.372719">Training</tspan></text>
</g></g><path
       id="path248"
       style="fill:#5b9bd5;fill-opacity:1;fill-rule:nonzero;stroke:none"
       d="m 608.46,102.72 h 50.39 v -2.52 h -50.39 z m 49.13,2.52 7.56,-3.78 -7.56,-3.78 z" /><path
       id="path250"
       style="fill:#deebf7;fill-opacity:1;fill-rule:evenodd;stroke:none"
       d="m 665.46,121.4 c 0,4.69 3.81,8.5 8.5,8.5 h 67.96 c 4.69,0 8.5,-3.81 8.5,-8.5 v -34 c 0,-4.694 -3.81,-8.5 -8.5,-8.5 h -67.96 c -4.69,0 -8.5,3.806 -8.5,8.5 z" /><path
       id="path252"
       style="fill:none;stroke:#5b9bd5;stroke-width:2.51999998;stroke-linecap:butt;stroke-linejoin:miter;stroke-miterlimit:10;stroke-dasharray:none;stroke-opacity:1"
       d="m 665.46,121.4 c 0,4.69 3.81,8.5 8.5,8.5 h 67.96 c 4.69,0 8.5,-3.81 8.5,-8.5 v -34 c 0,-4.694 -3.81,-8.5 -8.5,-8.5 h -67.96 c -4.69,0 -8.5,3.806 -8.5,8.5 z" /><g
       id="g254"><g
         clip-path="url(#clipPath260)"
         id="g256"><text
           id="text264"
           style="font-variant:normal;font-weight:normal;font-size:14.03999996px;font-family:ArialMT;-inkscape-font-specification:ArialMT;writing-mode:lr-tb;fill:#000000;fill-opacity:1;fill-rule:nonzero;stroke:none"
           transform="matrix(1,0,0,-1,693.05,99.168)"><tspan
             id="tspan262"
             y="0"
             x="0 7.8062401 15.61248 22.660561">Loss</tspan></text>
</g></g><g
       id="g266"><g
         clip-path="url(#clipPath272)"
         id="g268"><text
           id="text276"
           style="font-variant:normal;font-weight:normal;font-size:14.03999996px;font-family:ArialMT;-inkscape-font-specification:ArialMT;writing-mode:lr-tb;fill:#000000;fill-opacity:1;fill-rule:nonzero;stroke:none"
           transform="matrix(1,0,0,-1,613.01,83.832)"><tspan
             id="tspan274"
             y="0"
             x="0 8.5222797 16.32852 21.003839 30.9582 38.764439 43.439758">Forward</tspan></text>
</g></g><path
       id="path278"
       style="fill:none;stroke:#5b9bd5;stroke-width:2.51999998;stroke-linecap:butt;stroke-linejoin:miter;stroke-miterlimit:10;stroke-dasharray:none;stroke-opacity:1"
       d="m 705.9,150.66 v -19.9" /><path
       id="path280"
       style="fill:#5b9bd5;fill-opacity:1;fill-rule:nonzero;stroke:none"
       d="m 583.2,150.66 v -14.52 h -2.52 v 14.52 z m 2.52,-13.26 -3.78,-7.56 -3.78,7.56 z" /><path
       id="path282"
       style="fill:none;stroke:#5b9bd5;stroke-width:2.51999998;stroke-linecap:butt;stroke-linejoin:miter;stroke-miterlimit:10;stroke-dasharray:none;stroke-opacity:1"
       d="M 706.37,149.82 581.22,149.73" /><g
       id="g284"><g
         clip-path="url(#clipPath290)"
         id="g286"><text
           id="text294"
           style="font-variant:normal;font-weight:normal;font-size:14.03999996px;font-family:ArialMT;-inkscape-font-specification:ArialMT;writing-mode:lr-tb;fill:#000000;fill-opacity:1;fill-rule:nonzero;stroke:none"
           transform="matrix(1,0,0,-1,607.94,131.5)"><tspan
             id="tspan292"
             y="0"
             x="0 9.3646803 17.170919 24.219 31.28112 41.235481 49.041721 53.717041">Backward</tspan></text>
</g></g><path
       id="path296"
       style="fill:none;stroke:#5b9bd5;stroke-width:2.51999998;stroke-linecap:butt;stroke-linejoin:miter;stroke-miterlimit:10;stroke-dasharray:none;stroke-opacity:1"
       d="M 559.86,150.66 V 129.69" /><path
       id="path298"
       style="fill:#5b9bd5;fill-opacity:1;fill-rule:nonzero;stroke:none"
       d="m 438.6,149.94 v -7.87 h -2.52 v 7.87 z m 2.52,-6.61 -3.78,-7.56 -3.78,7.56 z" /><path
       id="path300"
       style="fill:none;stroke:#5b9bd5;stroke-width:2.51999998;stroke-linecap:butt;stroke-linejoin:miter;stroke-miterlimit:10;stroke-dasharray:none;stroke-opacity:1"
       d="M 561.05,150.66 435.9,150.57" /><path
       id="path302"
       style="fill:#ffc000;fill-opacity:1;fill-rule:nonzero;stroke:none"
       d="M 499.32,217.26 V 107.84 h -2.52 v 109.42 z m 2.52,-108.16 -3.78,-7.56 -3.78,7.56 z" /><path
       id="path304"
       style="fill:#ffc000;fill-opacity:1;fill-rule:nonzero;stroke:none"
       d="M 513.6,217.26 V 107.84 h -2.52 v 109.42 z m 2.52,-108.16 -3.78,-7.56 -3.78,7.56 z" /><path
       id="path306"
       style="fill:#ffc000;fill-opacity:1;fill-rule:nonzero;stroke:none"
       d="m 638.76,217.26 v -60.23 h -2.52 v 60.23 z m 2.52,-58.97 -3.78,-7.56 -3.78,7.56 z" /><path
       id="path308"
       style="fill:#e2f0d9;fill-opacity:1;fill-rule:evenodd;stroke:none"
       d="m 15.06,242.46 c 0,2.78 2.256,5.04 5.04,5.04 h 725.28 c 2.78,0 5.04,-2.26 5.04,-5.04 V 222.3 c 0,-2.78 -2.26,-5.04 -5.04,-5.04 H 20.1 c -2.784,0 -5.04,2.26 -5.04,5.04 z" /><path
       id="path310"
       style="fill:none;stroke:#70ad47;stroke-width:2.03999996;stroke-linecap:butt;stroke-linejoin:miter;stroke-miterlimit:10;stroke-dasharray:none;stroke-opacity:1"
       d="m 15.06,242.46 c 0,2.78 2.256,5.04 5.04,5.04 h 725.28 c 2.78,0 5.04,-2.26 5.04,-5.04 V 222.3 c 0,-2.78 -2.26,-5.04 -5.04,-5.04 H 20.1 c -2.784,0 -5.04,2.26 -5.04,5.04 z" /><g
       id="g312"><g
         clip-path="url(#clipPath318)"
         id="g314"><text
           id="text322"
           style="font-variant:normal;font-weight:normal;font-size:14.03999996px;font-family:ArialMT;-inkscape-font-specification:ArialMT;writing-mode:lr-tb;fill:#000000;fill-opacity:1;fill-rule:nonzero;stroke:none"
           transform="matrix(1,0,0,-1,342.82,227.26)"><tspan
             id="tspan320"
             y="0"
             x="0 10.10398">CL</tspan></text>
</g></g><g
       id="g324"><g
         clip-path="url(#clipPath330)"
         id="g326"><text
           id="text334"
           style="font-variant:normal;font-weight:normal;font-size:14.03999996px;font-family:ArialMT;-inkscape-font-specification:ArialMT;writing-mode:lr-tb;fill:#000000;fill-opacity:1;fill-rule:nonzero;stroke:none"
           transform="matrix(1,0,0,-1,363.24,227.26)"><tspan
             id="tspan332"
             y="0"
             x="0 9.3646803 12.48156 20.2878 28.09404 32.76936 35.886238 39.831478 47.637718">Algorithm</tspan></text>
</g></g><path
       id="path336"
       style="fill:#fff2cc;fill-opacity:1;fill-rule:evenodd;stroke:none"
       d="m 434.58,206.4 c 0,2.09 1.69,3.78 3.78,3.78 H 555.6 c 2.09,0 3.78,-1.69 3.78,-3.78 v -15.12 c 0,-2.09 -1.69,-3.78 -3.78,-3.78 H 438.36 c -2.09,0 -3.78,1.69 -3.78,3.78 z" /><path
       id="path338"
       style="fill:none;stroke:#ffc000;stroke-width:2.51999998;stroke-linecap:butt;stroke-linejoin:miter;stroke-miterlimit:10;stroke-dasharray:none;stroke-opacity:1"
       d="m 434.58,206.4 c 0,2.09 1.69,3.78 3.78,3.78 H 555.6 c 2.09,0 3.78,-1.69 3.78,-3.78 v -15.12 c 0,-2.09 -1.69,-3.78 -3.78,-3.78 H 438.36 c -2.09,0 -3.78,1.69 -3.78,3.78 z" /><g
       id="g340"><g
         clip-path="url(#clipPath346)"
         id="g342"><text
           id="text350"
           style="font-variant:normal;font-weight:normal;font-size:14.03999996px;font-family:ArialMT;-inkscape-font-specification:ArialMT;writing-mode:lr-tb;fill:#000000;fill-opacity:1;fill-rule:nonzero;stroke:none"
           transform="matrix(1,0,0,-1,451.03,193.66)"><tspan
             id="tspan348"
             y="0"
             x="0 7.8062401 15.61248 19.54368 27.34992 35.156158 42.204239 49.884121 54.559441 59.12244 62.239319 69.301437 76.981323 80.098198 87.904442">data_curriculum</tspan></text>
</g></g><path
       id="path352"
       style="fill:#fff2cc;fill-opacity:1;fill-rule:evenodd;stroke:none"
       d="m 447.06,177.12 c 0,2.09 1.69,3.78 3.78,3.78 h 122.88 c 2.09,0 3.78,-1.69 3.78,-3.78 V 162 c 0,-2.09 -1.69,-3.78 -3.78,-3.78 H 450.84 c -2.09,0 -3.78,1.69 -3.78,3.78 z" /><path
       id="path354"
       style="fill:none;stroke:#ffc000;stroke-width:2.51999998;stroke-linecap:butt;stroke-linejoin:miter;stroke-miterlimit:10;stroke-dasharray:none;stroke-opacity:1"
       d="m 447.06,177.12 c 0,2.09 1.69,3.78 3.78,3.78 h 122.88 c 2.09,0 3.78,-1.69 3.78,-3.78 V 162 c 0,-2.09 -1.69,-3.78 -3.78,-3.78 H 450.84 c -2.09,0 -3.78,1.69 -3.78,3.78 z" /><g
       id="g356"><g
         clip-path="url(#clipPath362)"
         id="g358"><text
           id="text366"
           style="font-variant:normal;font-weight:normal;font-size:14.03999996px;font-family:ArialMT;-inkscape-font-specification:ArialMT;writing-mode:lr-tb;fill:#000000;fill-opacity:1;fill-rule:nonzero;stroke:none"
           transform="matrix(1,0,0,-1,457.01,164.45)"><tspan
             id="tspan364"
             y="0"
             x="0 11.63916 19.4454 27.25164 35.05788 38.174759 45.980999 53.000999 60.80724 65.482559 70.073639 73.190521 80.25264 87.932518 91.0494 98.855637">model_curriculum</tspan></text>
</g></g><path
       id="path368"
       style="fill:#fff2cc;fill-opacity:1;fill-rule:evenodd;stroke:none"
       d="m 581.94,191.88 c 0,2.09 1.69,3.78 3.78,3.78 h 108.72 c 2.09,0 3.78,-1.69 3.78,-3.78 v -15.12 c 0,-2.09 -1.69,-3.78 -3.78,-3.78 H 585.72 c -2.09,0 -3.78,1.69 -3.78,3.78 z" /><path
       id="path370"
       style="fill:none;stroke:#ffc000;stroke-width:2.51999998;stroke-linecap:butt;stroke-linejoin:miter;stroke-miterlimit:10;stroke-dasharray:none;stroke-opacity:1"
       d="m 581.94,191.88 c 0,2.09 1.69,3.78 3.78,3.78 h 108.72 c 2.09,0 3.78,-1.69 3.78,-3.78 v -15.12 c 0,-2.09 -1.69,-3.78 -3.78,-3.78 H 585.72 c -2.09,0 -3.78,1.69 -3.78,3.78 z" /><g
       id="g372"><g
         clip-path="url(#clipPath378)"
         id="g374"><text
           id="text382"
           style="font-variant:normal;font-weight:normal;font-size:14.03999996px;font-family:ArialMT;-inkscape-font-specification:ArialMT;writing-mode:lr-tb;fill:#000000;fill-opacity:1;fill-rule:nonzero;stroke:none"
           transform="matrix(1,0,0,-1,591.43,179.21)"><tspan
             id="tspan380"
             y="0"
             x="0 3.1168799 10.92312 17.985241 25.047359 32.8536 39.915722 47.721958 52.27092 56.946239 60.063122 67.026962 74.833199 77.950081 85.629959">loss_curriculum</tspan></text>
</g></g><path
       id="path384"
       style="fill:#fff2cc;fill-opacity:1;fill-rule:evenodd;stroke:none"
       d="m 193.38,192.12 c 0,2.09 1.69,3.78 3.78,3.78 h 100.2 c 2.09,0 3.78,-1.69 3.78,-3.78 V 177 c 0,-2.09 -1.69,-3.78 -3.78,-3.78 h -100.2 c -2.09,0 -3.78,1.69 -3.78,3.78 z" /><path
       id="path386"
       style="fill:none;stroke:#ffc000;stroke-width:2.51999998;stroke-linecap:butt;stroke-linejoin:miter;stroke-miterlimit:10;stroke-dasharray:none;stroke-opacity:1"
       d="m 193.38,192.12 c 0,2.09 1.69,3.78 3.78,3.78 h 100.2 c 2.09,0 3.78,-1.69 3.78,-3.78 V 177 c 0,-2.09 -1.69,-3.78 -3.78,-3.78 h -100.2 c -2.09,0 -3.78,1.69 -3.78,3.78 z" /><g
       id="g388"><g
         clip-path="url(#clipPath394)"
         id="g390"><text
           id="text398"
           style="font-variant:normal;font-weight:normal;font-size:14.03999996px;font-family:ArialMT;-inkscape-font-specification:ArialMT;writing-mode:lr-tb;fill:#000000;fill-opacity:1;fill-rule:nonzero;stroke:none"
           transform="matrix(1,0,0,-1,207.46,179.38)"><tspan
             id="tspan396"
             y="0"
             x="0 7.8062401 15.61248 19.54368 27.34992 35.156158 42.962399 47.637718 55.443958 63.109798 70.916039 75.464996">data_prepare</tspan></text>
</g></g><path
       id="path400"
       style="fill:#fff2cc;fill-opacity:1;fill-rule:evenodd;stroke:none"
       d="m 307.5,191.88 c 0,2.09 1.69,3.78 3.78,3.78 h 105.84 c 2.09,0 3.78,-1.69 3.78,-3.78 v -15.12 c 0,-2.09 -1.69,-3.78 -3.78,-3.78 H 311.28 c -2.09,0 -3.78,1.69 -3.78,3.78 z" /><path
       id="path402"
       style="fill:none;stroke:#ffc000;stroke-width:2.51999998;stroke-linecap:butt;stroke-linejoin:miter;stroke-miterlimit:10;stroke-dasharray:none;stroke-opacity:1"
       d="m 307.5,191.88 c 0,2.09 1.69,3.78 3.78,3.78 h 105.84 c 2.09,0 3.78,-1.69 3.78,-3.78 v -15.12 c 0,-2.09 -1.69,-3.78 -3.78,-3.78 H 311.28 c -2.09,0 -3.78,1.69 -3.78,3.78 z" /><g
       id="g404"><g
         clip-path="url(#clipPath410)"
         id="g406"><text
           id="text414"
           style="font-variant:normal;font-weight:normal;font-size:14.03999996px;font-family:ArialMT;-inkscape-font-specification:ArialMT;writing-mode:lr-tb;fill:#000000;fill-opacity:1;fill-rule:nonzero;stroke:none"
           transform="matrix(1,0,0,-1,317.09,179.21)"><tspan
             id="tspan412"
             y="0"
             x="0 11.63916 19.4454 27.25164 35.05788 38.174759 45.980999 53.787239 58.462559 66.268799 74.075043 81.712799 86.388123">model_prepare</tspan></text>
</g></g></g></svg>