<?xml version="1.0" encoding="UTF-8" standalone="no"?>
<svg
   xmlns:dc="http://purl.org/dc/elements/1.1/"
   xmlns:cc="http://creativecommons.org/ns#"
   xmlns:rdf="http://www.w3.org/1999/02/22-rdf-syntax-ns#"
   xmlns:svg="http://www.w3.org/2000/svg"
   xmlns="http://www.w3.org/2000/svg"
   viewBox="0 0 1247.2 491.35999"
   height="491.35999"
   width="1247.2"
   xml:space="preserve"
   id="svg2"
   version="1.1"><metadata
     id="metadata8"><rdf:RDF><cc:Work
         rdf:about=""><dc:format>image/svg+xml</dc:format><dc:type
           rdf:resource="http://purl.org/dc/dcmitype/StillImage" /></cc:Work></rdf:RDF></metadata><defs
     id="defs6"><clipPath
       id="clipPath18"
       clipPathUnits="userSpaceOnUse"><path
         style="clip-rule:evenodd"
         id="path16"
         d="M 0,6.1035e-5 H 935.4 V 368.52006 H 0 Z" /></clipPath><clipPath
       id="clipPath28"
       clipPathUnits="userSpaceOnUse"><path
         style="clip-rule:evenodd"
         id="path26"
         d="M 0,368.52 H 935.4 V -3.0518e-5 L 0,0" /></clipPath><clipPath
       id="clipPath38"
       clipPathUnits="userSpaceOnUse"><path
         style="clip-rule:evenodd"
         id="path36"
         d="M 0,368.52 H 935.4 V 1.2207e-4 L 3.0518e-5,9.1553e-5" /></clipPath><clipPath
       id="clipPath60"
       clipPathUnits="userSpaceOnUse"><path
         style="clip-rule:evenodd"
         id="path58"
         d="M 1.3939e-5,0 H 935.40001 V 368.52 H 1.3939e-5 Z" /></clipPath><clipPath
       id="clipPath78"
       clipPathUnits="userSpaceOnUse"><path
         style="clip-rule:evenodd"
         id="path76"
         d="M 1.3939e-5,0 H 935.40001 V 368.52 H 1.3939e-5 Z" /></clipPath><clipPath
       id="clipPath90"
       clipPathUnits="userSpaceOnUse"><path
         style="clip-rule:evenodd"
         id="path88"
         d="M 1.3939e-5,0 H 935.40001 V 368.52 H 1.3939e-5 Z" /></clipPath><clipPath
       id="clipPath102"
       clipPathUnits="userSpaceOnUse"><path
         style="clip-rule:evenodd"
         id="path100"
         d="M 1.3939e-5,0 H 935.40001 V 368.52 H 1.3939e-5 Z" /></clipPath><clipPath
       id="clipPath114"
       clipPathUnits="userSpaceOnUse"><path
         style="clip-rule:evenodd"
         id="path112"
         d="M 1.3939e-5,0 H 935.40001 V 368.52 H 1.3939e-5 Z" /></clipPath><clipPath
       id="clipPath126"
       clipPathUnits="userSpaceOnUse"><path
         style="clip-rule:evenodd"
         id="path124"
         d="M 1.3939e-5,0 H 935.40001 V 368.52 H 1.3939e-5 Z" /></clipPath><clipPath
       id="clipPath142"
       clipPathUnits="userSpaceOnUse"><path
         style="clip-rule:evenodd"
         id="path140"
         d="M 1.3939e-5,0 H 935.40001 V 368.52 H 1.3939e-5 Z" /></clipPath><clipPath
       id="clipPath154"
       clipPathUnits="userSpaceOnUse"><path
         style="clip-rule:evenodd"
         id="path152"
         d="M 1.3939e-5,0 H 935.40001 V 368.52 H 1.3939e-5 Z" /></clipPath><clipPath
       id="clipPath172"
       clipPathUnits="userSpaceOnUse"><path
         style="clip-rule:evenodd"
         id="path170"
         d="M 1.3939e-5,0 H 935.40001 V 368.52 H 1.3939e-5 Z" /></clipPath><clipPath
       id="clipPath184"
       clipPathUnits="userSpaceOnUse"><path
         style="clip-rule:evenodd"
         id="path182"
         d="M 1.3939e-5,0 H 935.40001 V 368.52 H 1.3939e-5 Z" /></clipPath><clipPath
       id="clipPath202"
       clipPathUnits="userSpaceOnUse"><path
         style="clip-rule:evenodd"
         id="path200"
         d="M 1.3939e-5,0 H 935.40001 V 368.52 H 1.3939e-5 Z" /></clipPath><clipPath
       id="clipPath214"
       clipPathUnits="userSpaceOnUse"><path
         style="clip-rule:evenodd"
         id="path212"
         d="M 1.3939e-5,0 H 935.40001 V 368.52 H 1.3939e-5 Z" /></clipPath><clipPath
       id="clipPath232"
       clipPathUnits="userSpaceOnUse"><path
         style="clip-rule:evenodd"
         id="path230"
         d="M 1.3939e-5,0 H 935.40001 V 368.52 H 1.3939e-5 Z" /></clipPath><clipPath
       id="clipPath248"
       clipPathUnits="userSpaceOnUse"><path
         style="clip-rule:evenodd"
         id="path246"
         d="M 1.3939e-5,0 H 935.40001 V 368.52 H 1.3939e-5 Z" /></clipPath><clipPath
       id="clipPath264"
       clipPathUnits="userSpaceOnUse"><path
         style="clip-rule:evenodd"
         id="path262"
         d="M 1.3939e-5,0 H 935.40001 V 368.52 H 1.3939e-5 Z" /></clipPath><clipPath
       id="clipPath280"
       clipPathUnits="userSpaceOnUse"><path
         style="clip-rule:evenodd"
         id="path278"
         d="M 1.3939e-5,0 H 935.40001 V 368.52 H 1.3939e-5 Z" /></clipPath><clipPath
       id="clipPath296"
       clipPathUnits="userSpaceOnUse"><path
         style="clip-rule:evenodd"
         id="path294"
         d="M 1.3939e-5,0 H 935.40001 V 368.52 H 1.3939e-5 Z" /></clipPath><clipPath
       id="clipPath312"
       clipPathUnits="userSpaceOnUse"><path
         style="clip-rule:evenodd"
         id="path310"
         d="M 1.3939e-5,0 H 935.40001 V 368.52 H 1.3939e-5 Z" /></clipPath><clipPath
       id="clipPath324"
       clipPathUnits="userSpaceOnUse"><path
         style="clip-rule:evenodd"
         id="path322"
         d="M 1.3939e-5,0 H 935.40001 V 368.52 H 1.3939e-5 Z" /></clipPath><clipPath
       id="clipPath336"
       clipPathUnits="userSpaceOnUse"><path
         style="clip-rule:evenodd"
         id="path334"
         d="M 1.3939e-5,0 H 935.40001 V 368.52 H 1.3939e-5 Z" /></clipPath></defs><g
     transform="matrix(1.3333333,0,0,-1.3333333,0,491.36)"
     id="g10"><g
       id="g12"><g
         clip-path="url(#clipPath18)"
         id="g14"><path
           id="path20"
           style="fill:#ffffff;fill-opacity:1;fill-rule:evenodd;stroke:none"
           d="M 0,3.0518e-5 H 935.4 V 368.52003 H 0 Z" /></g></g><g
       id="g22"><g
         clip-path="url(#clipPath28)"
         id="g24"><path
           id="path30"
           style="fill:none;stroke:#000000;stroke-width:1.55999994;stroke-linecap:butt;stroke-linejoin:miter;stroke-miterlimit:10;stroke-dasharray:none;stroke-opacity:1"
           d="m 702.23,194.89 c -1.06,41.26 -14.1,76.27 -32.24,86.6 v -5.39 l -10.77,13.79 10.77,7.75 v -5.38 c 19.02,-10.83 32.31,-48.67 32.31,-91.99 V 189.5 c 0,-52.47 -19.29,-95 -43.08,-95 v 10.77 c 23.79,0 43.08,42.53 43.08,95" /></g></g><g
       id="g32"><g
         clip-path="url(#clipPath38)"
         id="g34"><path
           id="path40"
           style="fill:none;stroke:#000000;stroke-width:1.55999994;stroke-linecap:butt;stroke-linejoin:miter;stroke-miterlimit:10;stroke-dasharray:none;stroke-opacity:1"
           d="m 254.52,195.77 c 1.02,-43.31 14.07,-80.11 32.25,-90.96 v 5.39 l 10.77,-13.93 -10.77,-7.61 v 5.385 c -19.02,11.345 -32.31,50.965 -32.31,96.345 v 10.77 c 0,54.95 19.29,99.5 43.08,99.5 v -10.77 c -23.79,0 -43.08,-44.55 -43.08,-99.5" /></g></g><g
       id="g42"><path
         id="path44"
         style="fill:none;stroke:#000000;stroke-width:2.03999996;stroke-linecap:butt;stroke-linejoin:miter;stroke-miterlimit:10;stroke-dasharray:8.16, 6.12;stroke-dashoffset:0;stroke-opacity:1"
         d="m 207.3,326.62 c 0,15.16 12.28,27.44 27.44,27.44 h 465.92 c 15.16,0 27.44,-12.28 27.44,-27.44 V 41.897 C 728.1,26.744 715.82,14.46 700.66,14.46 H 234.74 c -15.16,0 -27.44,12.284 -27.44,27.437 z" /></g><path
       id="path46"
       style="fill:#e2f0d9;fill-opacity:1;fill-rule:evenodd;stroke:none"
       d="m 297.54,316.52 c 0,5.42 4.4,9.82 9.82,9.82 H 649.4 c 5.42,0 9.82,-4.4 9.82,-9.82 v -39.28 c 0,-5.42 -4.4,-9.82 -9.82,-9.82 H 307.36 c -5.42,0 -9.82,4.4 -9.82,9.82 z" /><path
       id="path48"
       style="fill:none;stroke:#70ad47;stroke-width:2.03999996;stroke-linecap:butt;stroke-linejoin:miter;stroke-miterlimit:10;stroke-dasharray:none;stroke-opacity:1"
       d="m 297.54,316.52 c 0,5.42 4.4,9.82 9.82,9.82 H 649.4 c 5.42,0 9.82,-4.4 9.82,-9.82 v -39.28 c 0,-5.42 -4.4,-9.82 -9.82,-9.82 H 307.36 c -5.42,0 -9.82,4.4 -9.82,9.82 z" /><path
       id="path50"
       style="fill:#deebf7;fill-opacity:1;fill-rule:evenodd;stroke:none"
       d="m 13.14,268.62 h 119.04 v 70.8 H 13.14 Z" /><path
       id="path52"
       style="fill:none;stroke:#5b9bd5;stroke-width:2.51999998;stroke-linecap:butt;stroke-linejoin:miter;stroke-miterlimit:10;stroke-dasharray:none;stroke-opacity:1"
       d="m 13.14,268.62 h 119.04 v 70.8 H 13.14 Z" /><g
       id="g54"><g
         clip-path="url(#clipPath60)"
         id="g56"><text
           id="text64"
           style="font-variant:normal;font-weight:normal;font-size:18px;font-family:ArialMT;-inkscape-font-specification:ArialMT;writing-mode:lr-tb;fill:#000000;fill-opacity:1;fill-rule:nonzero;stroke:none"
           transform="matrix(1,0,0,-1,48.12,297.31)"><tspan
             id="tspan62"
             y="0"
             x="0 14.994 25.002001 34.919998 44.928001">Model</tspan></text>
</g></g><path
       id="path66"
       style="fill:#ededff;fill-opacity:1;fill-rule:evenodd;stroke:none"
       d="m 13.14,227.99 c 0,-5.88 26.648,-10.64 59.52,-10.64 32.87,0 59.52,4.76 59.52,10.64 v -63.82 c 0,-5.87 -26.65,-10.63 -59.52,-10.63 -32.872,0 -59.52,4.76 -59.52,10.63 z" /><path
       id="path68"
       style="fill:#f4f4ff;fill-opacity:1;fill-rule:evenodd;stroke:none"
       d="m 13.14,227.99 c 0,5.87 26.648,10.63 59.52,10.63 32.87,0 59.52,-4.76 59.52,-10.63 0,-5.88 -26.65,-10.64 -59.52,-10.64 -32.872,0 -59.52,4.76 -59.52,10.64 z" /><path
       id="path70"
       style="fill:none;stroke:#adaddb;stroke-width:2.51999998;stroke-linecap:butt;stroke-linejoin:miter;stroke-miterlimit:10;stroke-dasharray:none;stroke-opacity:1"
       d="m 132.18,227.99 c 0,-5.88 -26.65,-10.64 -59.52,-10.64 -32.872,0 -59.52,4.76 -59.52,10.64 0,5.87 26.648,10.63 59.52,10.63 32.87,0 59.52,-4.76 59.52,-10.63 z m 0,0 v -63.82 c 0,-5.87 -26.65,-10.63 -59.52,-10.63 -32.872,0 -59.52,4.76 -59.52,10.63 v 63.82" /><g
       id="g72"><g
         clip-path="url(#clipPath78)"
         id="g74"><text
           id="text82"
           style="font-variant:normal;font-weight:normal;font-size:18px;font-family:ArialMT;-inkscape-font-specification:ArialMT;writing-mode:lr-tb;fill:#000000;fill-opacity:1;fill-rule:nonzero;stroke:none"
           transform="matrix(1,0,0,-1,41.64,184.03)"><tspan
             id="tspan80"
             y="0"
             x="0 12.996 22.914 27.917999 37.925999 46.925999 56.880001">Dataset</tspan></text>
</g></g><g
       id="g84"><g
         clip-path="url(#clipPath90)"
         id="g86"><text
           id="text94"
           style="font-variant:normal;font-weight:bold;font-size:20.04000092px;font-family:Arial;-inkscape-font-specification:Arial-BoldMT;writing-mode:lr-tb;fill:#000000;fill-opacity:1;fill-rule:nonzero;stroke:none"
           transform="matrix(1,0,0,-1,431.78,26.496)"><tspan
             id="tspan92"
             y="0"
             x="0 14.54398">CL</tspan></text>
</g></g><g
       id="g96"><g
         clip-path="url(#clipPath102)"
         id="g98"><text
           id="text106"
           style="font-variant:normal;font-weight:bold;font-size:20.04000092px;font-family:Arial;-inkscape-font-specification:Arial-BoldMT;writing-mode:lr-tb;fill:#000000;fill-opacity:1;fill-rule:nonzero;stroke:none"
           transform="matrix(1,0,0,-1,463.73,26.496)"><tspan
             id="tspan104"
             y="0"
             x="0 11.16228 18.95784 30.10008 35.6712 47.915642 59.05788">Trainer</tspan></text>
</g></g><g
       id="g108"><g
         clip-path="url(#clipPath114)"
         id="g110"><text
           id="text118"
           style="font-variant:normal;font-weight:bold;font-size:20.04000092px;font-family:Arial;-inkscape-font-specification:Arial-BoldMT;writing-mode:lr-tb;fill:#000000;fill-opacity:1;fill-rule:nonzero;stroke:none"
           transform="matrix(1,0,0,-1,415.01,288.74)"><tspan
             id="tspan116"
             y="0"
             x="0 14.54398">CL</tspan></text>
</g></g><g
       id="g120"><g
         clip-path="url(#clipPath126)"
         id="g122"><text
           id="text130"
           style="font-variant:normal;font-weight:bold;font-size:20.04000092px;font-family:Arial;-inkscape-font-specification:Arial-BoldMT;writing-mode:lr-tb;fill:#000000;fill-opacity:1;fill-rule:nonzero;stroke:none"
           transform="matrix(1,0,0,-1,446.23,288.74)"><tspan
             id="tspan128"
             y="0"
             x="0 14.46888 20.040001 32.284439 44.528881 52.32444 57.895561 64.568878 76.813316">Algorithm</tspan></text>
</g></g><path
       id="path132"
       style="fill:#e2f0d9;fill-opacity:1;fill-rule:evenodd;stroke:none"
       d="m 299.46,116 c 0,5.42 4.4,9.82 9.82,9.82 h 343.96 c 5.42,0 9.82,-4.4 9.82,-9.82 V 76.72 c 0,-5.423 -4.4,-9.82 -9.82,-9.82 H 309.28 c -5.42,0 -9.82,4.397 -9.82,9.82 z" /><path
       id="path134"
       style="fill:none;stroke:#70ad47;stroke-width:2.03999996;stroke-linecap:butt;stroke-linejoin:miter;stroke-miterlimit:10;stroke-dasharray:none;stroke-opacity:1"
       d="m 299.46,116 c 0,5.42 4.4,9.82 9.82,9.82 h 343.96 c 5.42,0 9.82,-4.4 9.82,-9.82 V 76.72 c 0,-5.423 -4.4,-9.82 -9.82,-9.82 H 309.28 c -5.42,0 -9.82,4.397 -9.82,9.82 z" /><g
       id="g136"><g
         clip-path="url(#clipPath142)"
         id="g138"><text
           id="text146"
           style="font-variant:normal;font-weight:bold;font-size:20.04000092px;font-family:Arial;-inkscape-font-specification:Arial-BoldMT;writing-mode:lr-tb;fill:#000000;fill-opacity:1;fill-rule:nonzero;stroke:none"
           transform="matrix(1,0,0,-1,416.11,88.944)"><tspan
             id="tspan144"
             y="0"
             x="0 16.693319 28.937759 41.182201 52.32444">Model</tspan></text>
</g></g><g
       id="g148"><g
         clip-path="url(#clipPath154)"
         id="g150"><text
           id="text158"
           style="font-variant:normal;font-weight:bold;font-size:20.04000092px;font-family:Arial;-inkscape-font-specification:Arial-BoldMT;writing-mode:lr-tb;fill:#000000;fill-opacity:1;fill-rule:nonzero;stroke:none"
           transform="matrix(1,0,0,-1,479.35,88.944)"><tspan
             id="tspan156"
             y="0"
             x="0 11.16228 18.95784 30.10008 35.6712 47.915642 59.05788">Trainer</tspan></text>
</g></g><path
       id="path160"
       style="fill:none;stroke:#000000;stroke-width:2.03999996;stroke-linecap:butt;stroke-linejoin:miter;stroke-miterlimit:10;stroke-dasharray:none;stroke-opacity:1"
       d="m 144.54,201.03 h 25.55 v 6.39 l 19.21,-12.78 -19.21,-12.78 v 6.39 h -25.55 z" /><path
       id="path162"
       style="fill:#deebf7;fill-opacity:1;fill-rule:evenodd;stroke:none"
       d="m 810.54,207.9 h 113.4 v 70.8 h -113.4 z" /><path
       id="path164"
       style="fill:none;stroke:#5b9bd5;stroke-width:2.51999998;stroke-linecap:butt;stroke-linejoin:miter;stroke-miterlimit:10;stroke-dasharray:none;stroke-opacity:1"
       d="m 810.54,207.9 h 113.4 v 70.8 h -113.4 z" /><g
       id="g166"><g
         clip-path="url(#clipPath172)"
         id="g168"><text
           id="text176"
           style="font-variant:normal;font-weight:normal;font-size:18px;font-family:ArialMT;-inkscape-font-specification:ArialMT;writing-mode:lr-tb;fill:#000000;fill-opacity:1;fill-rule:nonzero;stroke:none"
           transform="matrix(1,0,0,-1,837.12,247.39)"><tspan
             id="tspan174"
             y="0"
             x="0 10.44 16.434 26.441999 30.365999 40.374001 50.292">Trained</tspan></text>
</g></g><g
       id="g178"><g
         clip-path="url(#clipPath184)"
         id="g180"><text
           id="text188"
           style="font-variant:normal;font-weight:normal;font-size:18.02400017px;font-family:ArialMT;-inkscape-font-specification:ArialMT;writing-mode:lr-tb;fill:#000000;fill-opacity:1;fill-rule:nonzero;stroke:none"
           transform="matrix(1,0,0,-1,842.76,225.79)"><tspan
             id="tspan186"
             y="0"
             x="0 15.013992 24.96324 34.930511 44.897785">Model</tspan></text>
</g></g><path
       id="path190"
       style="fill:#fbe5d6;fill-opacity:1;fill-rule:evenodd;stroke:none"
       d="m 810.9,171.06 h 113.4 v -61.4 L 912.02,97.38 H 810.9 Z" /><path
       id="path192"
       style="fill:#cab8ac;fill-opacity:1;fill-rule:evenodd;stroke:none"
       d="m 912.02,97.38 2.46,9.82 9.82,2.46 z" /><path
       id="path194"
       style="fill:none;stroke:#ff9276;stroke-width:2.51999998;stroke-linecap:butt;stroke-linejoin:miter;stroke-miterlimit:10;stroke-dasharray:none;stroke-opacity:1"
       d="m 912.02,97.38 2.46,9.82 9.82,2.46 -12.28,-12.28 H 810.9 v 73.68 h 113.4 v -61.4" /><g
       id="g196"><g
         clip-path="url(#clipPath202)"
         id="g198"><text
           id="text206"
           style="font-variant:normal;font-weight:normal;font-size:18px;font-family:ArialMT;-inkscape-font-specification:ArialMT;writing-mode:lr-tb;fill:#000000;fill-opacity:1;fill-rule:nonzero;stroke:none"
           transform="matrix(1,0,0,-1,851.14,139.58)"><tspan
             id="tspan204"
             y="0"
             x="0 9.1260004 19.134001 28.134001">Test</tspan></text>
</g></g><g
       id="g208"><g
         clip-path="url(#clipPath214)"
         id="g210"><text
           id="text218"
           style="font-variant:normal;font-weight:normal;font-size:18px;font-family:ArialMT;-inkscape-font-specification:ArialMT;writing-mode:lr-tb;fill:#000000;fill-opacity:1;fill-rule:nonzero;stroke:none"
           transform="matrix(1,0,0,-1,837.7,117.98)"><tspan
             id="tspan216"
             y="0"
             x="0 12.996 22.914 31.914 41.922001 45.827999 50.832001">Results</tspan></text>
</g></g><path
       id="path220"
       style="fill:none;stroke:#000000;stroke-width:2.03999996;stroke-linecap:butt;stroke-linejoin:miter;stroke-miterlimit:10;stroke-dasharray:none;stroke-opacity:1"
       d="m 751.26,202.47 h 25.55 v 6.39 l 19.21,-12.78 -19.21,-12.78 v 6.39 h -25.55 z" /><path
       id="path222"
       style="fill:#fff2cc;fill-opacity:1;fill-rule:evenodd;stroke:none"
       d="m 214.38,251.78 c 0,3.14 2.54,5.68 5.68,5.68 h 150.16 c 3.14,0 5.68,-2.54 5.68,-5.68 v -22.72 c 0,-3.14 -2.54,-5.68 -5.68,-5.68 H 220.06 c -3.14,0 -5.68,2.54 -5.68,5.68 z" /><path
       id="path224"
       style="fill:none;stroke:#ffc000;stroke-width:2.51999998;stroke-linecap:butt;stroke-linejoin:miter;stroke-miterlimit:10;stroke-dasharray:none;stroke-opacity:1"
       d="m 214.38,251.78 c 0,3.14 2.54,5.68 5.68,5.68 h 150.16 c 3.14,0 5.68,-2.54 5.68,-5.68 v -22.72 c 0,-3.14 -2.54,-5.68 -5.68,-5.68 H 220.06 c -3.14,0 -5.68,2.54 -5.68,5.68 z" /><g
       id="g226"><g
         clip-path="url(#clipPath232)"
         id="g228"><text
           id="text236"
           style="font-variant:normal;font-weight:normal;font-size:18px;font-family:ArialMT;-inkscape-font-specification:ArialMT;writing-mode:lr-tb;fill:#000000;fill-opacity:1;fill-rule:nonzero;stroke:none"
           transform="matrix(1,0,0,-1,236.23,233.74)"><tspan
             id="tspan234"
             y="0"
             x="0 10.008 19.926001 24.93 34.938 44.891998 53.891998 63.900002 69.893997 75.888 79.811996 88.811996 98.82 102.726 112.734">data_curriculum</tspan></text>
</g></g><path
       id="path238"
       style="fill:#fff2cc;fill-opacity:1;fill-rule:evenodd;stroke:none"
       d="m 214.38,208.36 c 0,3.13 2.53,5.66 5.66,5.66 h 150.2 c 3.13,0 5.66,-2.53 5.66,-5.66 v -22.64 c 0,-3.13 -2.53,-5.66 -5.66,-5.66 h -150.2 c -3.13,0 -5.66,2.53 -5.66,5.66 z" /><path
       id="path240"
       style="fill:none;stroke:#ffc000;stroke-width:2.51999998;stroke-linecap:butt;stroke-linejoin:miter;stroke-miterlimit:10;stroke-dasharray:none;stroke-opacity:1"
       d="m 214.38,208.36 c 0,3.13 2.53,5.66 5.66,5.66 h 150.2 c 3.13,0 5.66,-2.53 5.66,-5.66 v -22.64 c 0,-3.13 -2.53,-5.66 -5.66,-5.66 h -150.2 c -3.13,0 -5.66,2.53 -5.66,5.66 z" /><g
       id="g242"><g
         clip-path="url(#clipPath248)"
         id="g244"><text
           id="text252"
           style="font-variant:normal;font-weight:normal;font-size:18px;font-family:ArialMT;-inkscape-font-specification:ArialMT;writing-mode:lr-tb;fill:#000000;fill-opacity:1;fill-rule:nonzero;stroke:none"
           transform="matrix(1,0,0,-1,224.33,190.34)"><tspan
             id="tspan250"
             y="0"
             x="0 14.994 25.002001 34.938 44.945999 48.852001 58.860001 67.860001 77.778 83.772003 89.765999 93.762001 102.762 112.698 116.694 126.612">model_curriculum</tspan></text>
</g></g><path
       id="path254"
       style="fill:#fff2cc;fill-opacity:1;fill-rule:evenodd;stroke:none"
       d="m 214.38,165.38 c 0,3.14 2.54,5.68 5.68,5.68 h 150.16 c 3.14,0 5.68,-2.54 5.68,-5.68 v -22.72 c 0,-3.14 -2.54,-5.68 -5.68,-5.68 H 220.06 c -3.14,0 -5.68,2.54 -5.68,5.68 z" /><path
       id="path256"
       style="fill:none;stroke:#ffc000;stroke-width:2.51999998;stroke-linecap:butt;stroke-linejoin:miter;stroke-miterlimit:10;stroke-dasharray:none;stroke-opacity:1"
       d="m 214.38,165.38 c 0,3.14 2.54,5.68 5.68,5.68 h 150.16 c 3.14,0 5.68,-2.54 5.68,-5.68 v -22.72 c 0,-3.14 -2.54,-5.68 -5.68,-5.68 H 220.06 c -3.14,0 -5.68,2.54 -5.68,5.68 z" /><g
       id="g258"><g
         clip-path="url(#clipPath264)"
         id="g260"><text
           id="text268"
           style="font-variant:normal;font-weight:normal;font-size:18.02400017px;font-family:ArialMT;-inkscape-font-specification:ArialMT;writing-mode:lr-tb;fill:#000000;fill-opacity:1;fill-rule:nonzero;stroke:none"
           transform="matrix(1,0,0,-1,240.31,147.31)"><tspan
             id="tspan266"
             y="0"
             x="0 4.001328 13.914528 22.926529 31.938528 41.869751 50.881752 60.831001 66.832993 72.834984 76.836311 85.794243 95.761513 99.76284 109.67604">loss_curriculum</tspan></text>
</g></g><path
       id="path270"
       style="fill:#fff2cc;fill-opacity:1;fill-rule:evenodd;stroke:none"
       d="m 553.14,230.68 c 0,3.13 2.53,5.66 5.66,5.66 H 709 c 3.13,0 5.66,-2.53 5.66,-5.66 v -22.64 c 0,-3.13 -2.53,-5.66 -5.66,-5.66 H 558.8 c -3.13,0 -5.66,2.53 -5.66,5.66 z" /><path
       id="path272"
       style="fill:none;stroke:#ffc000;stroke-width:2.51999998;stroke-linecap:butt;stroke-linejoin:miter;stroke-miterlimit:10;stroke-dasharray:none;stroke-opacity:1"
       d="m 553.14,230.68 c 0,3.13 2.53,5.66 5.66,5.66 H 709 c 3.13,0 5.66,-2.53 5.66,-5.66 v -22.64 c 0,-3.13 -2.53,-5.66 -5.66,-5.66 H 558.8 c -3.13,0 -5.66,2.53 -5.66,5.66 z" /><g
       id="g274"><g
         clip-path="url(#clipPath280)"
         id="g276"><text
           id="text284"
           style="font-variant:normal;font-weight:normal;font-size:18px;font-family:ArialMT;-inkscape-font-specification:ArialMT;writing-mode:lr-tb;fill:#000000;fill-opacity:1;fill-rule:nonzero;stroke:none"
           transform="matrix(1,0,0,-1,583.03,212.66)"><tspan
             id="tspan282"
             y="0"
             x="0 10.008 19.926001 24.93 34.938 44.891998 54.900002 60.894001 70.811996 80.82 90.737999 96.732002">data_prepare</tspan></text>
</g></g><path
       id="path286"
       style="fill:#fff2cc;fill-opacity:1;fill-rule:evenodd;stroke:none"
       d="m 553.14,185.42 c 0,3.14 2.54,5.68 5.68,5.68 h 150.16 c 3.14,0 5.68,-2.54 5.68,-5.68 V 162.7 c 0,-3.14 -2.54,-5.68 -5.68,-5.68 H 558.82 c -3.14,0 -5.68,2.54 -5.68,5.68 z" /><path
       id="path288"
       style="fill:none;stroke:#ffc000;stroke-width:2.51999998;stroke-linecap:butt;stroke-linejoin:miter;stroke-miterlimit:10;stroke-dasharray:none;stroke-opacity:1"
       d="m 553.14,185.42 c 0,3.14 2.54,5.68 5.68,5.68 h 150.16 c 3.14,0 5.68,-2.54 5.68,-5.68 V 162.7 c 0,-3.14 -2.54,-5.68 -5.68,-5.68 H 558.82 c -3.14,0 -5.68,2.54 -5.68,5.68 z" /><g
       id="g290"><g
         clip-path="url(#clipPath296)"
         id="g292"><text
           id="text300"
           style="font-variant:normal;font-weight:normal;font-size:18px;font-family:ArialMT;-inkscape-font-specification:ArialMT;writing-mode:lr-tb;fill:#000000;fill-opacity:1;fill-rule:nonzero;stroke:none"
           transform="matrix(1,0,0,-1,573.55,167.33)"><tspan
             id="tspan298"
             y="0"
             x="0 14.994 25.002001 34.919998 44.928001 48.834 58.841999 68.760002 74.753998 84.762001 94.68 104.688 110.682">model_prepare</tspan></text>
</g></g><path
       id="path302"
       style="fill:#f6ecf7;fill-opacity:1;fill-rule:evenodd;stroke:none"
       d="m 26.24,123.54 h 105.82 v -66.1 c 0,-7.301 -5.92,-13.22 -13.22,-13.22 H 13.02 v 66.1 c 0,7.3 5.919,13.22 13.22,13.22 z" /><path
       id="path304"
       style="fill:none;stroke:#f391b7;stroke-width:2.51999998;stroke-linecap:butt;stroke-linejoin:miter;stroke-miterlimit:10;stroke-dasharray:none;stroke-opacity:1"
       d="m 26.24,123.54 h 105.82 v -66.1 c 0,-7.301 -5.92,-13.22 -13.22,-13.22 H 13.02 v 66.1 c 0,7.3 5.919,13.22 13.22,13.22 z" /><g
       id="g306"><g
         clip-path="url(#clipPath312)"
         id="g308"><text
           id="text316"
           style="font-variant:normal;font-weight:normal;font-size:18px;font-family:ArialMT;-inkscape-font-specification:ArialMT;writing-mode:lr-tb;fill:#000000;fill-opacity:1;fill-rule:nonzero;stroke:none"
           transform="matrix(1,0,0,-1,45.648,87.912)"><tspan
             id="tspan314"
             y="0"
             x="0 12.996 21.726 31.733999 41.652">Hyper</tspan></text>
</g></g><g
       id="g318"><g
         clip-path="url(#clipPath324)"
         id="g320"><text
           id="text328"
           style="font-variant:normal;font-weight:normal;font-size:18px;font-family:ArialMT;-inkscape-font-specification:ArialMT;writing-mode:lr-tb;fill:#000000;fill-opacity:1;fill-rule:nonzero;stroke:none"
           transform="matrix(1,0,0,-1,93.288,87.912)"><tspan
             id="tspan326"
             y="0"
             x="0">-</tspan></text>
</g></g><g
       id="g330"><g
         clip-path="url(#clipPath336)"
         id="g332"><text
           id="text340"
           style="font-variant:normal;font-weight:normal;font-size:18px;font-family:ArialMT;-inkscape-font-specification:ArialMT;writing-mode:lr-tb;fill:#000000;fill-opacity:1;fill-rule:nonzero;stroke:none"
           transform="matrix(1,0,0,-1,25.968,66.312)"><tspan
             id="tspan338"
             y="0"
             x="0 12.006 21.959999 27.954 37.962002 52.956001 62.874001 67.877998 77.886002 83.879997">Parameters</tspan></text>
</g></g></g></svg>